<?xml version="1.0" encoding="UTF-8"?>
<svg version="1.1" xmlns="http://www.w3.org/2000/svg" width="447" height="229">
<path d="M0 0 C12.45561486 9.28151266 22.38710041 20.58613234 27.47265625 35.34375 C27.74851562 36.07207031 28.024375 36.80039062 28.30859375 37.55078125 C34.78348543 55.34070642 33.69933424 74.93831967 26.47265625 92.34375 C23.5240391 98.54917309 20.12520705 104.17638961 15.76953125 109.4921875 C14.249756 111.6619871 13.42264515 113.87892757 12.47265625 116.34375 C13.68489868 116.18555786 13.68489868 116.18555786 14.92163086 116.02416992 C29.14156548 114.17140644 43.3627378 112.32830633 57.59765625 110.59375 C58.62624756 110.46637451 59.65483887 110.33899902 60.71459961 110.20776367 C61.66858643 110.09279541 62.62257324 109.97782715 63.60546875 109.859375 C64.42934082 109.75915039 65.25321289 109.65892578 66.10205078 109.55566406 C68.5714354 109.3349199 70.99476835 109.3073834 73.47265625 109.34375 C73.95886897 116.51538759 73.95886897 116.51538759 71.78515625 120.21875 C68.14565915 123.56315274 64.32510902 124.53064662 59.50390625 125.16796875 C58.48329102 125.30614014 57.46267578 125.44431152 56.41113281 125.58666992 C55.27643555 125.73338135 54.14173828 125.88009277 52.97265625 126.03125 C51.76319336 126.19278564 50.55373047 126.35432129 49.30761719 126.52075195 C46.44191938 126.90323797 43.57564 127.28101145 40.70898438 127.65625 C35.67836915 128.31534261 30.64909029 128.98430973 25.61987305 129.65397644 C15.05596874 131.06044063 4.49147498 132.462509 -6.07421875 133.85546875 C-7.09517639 133.99073975 -8.11613403 134.12601074 -9.16802979 134.26538086 C-26.04848868 136.48580045 -26.04848868 136.48580045 -32.77734375 136.59375 C-34.23914063 136.63242187 -34.23914063 136.63242187 -35.73046875 136.671875 C-39.03351581 136.28436669 -40.85205241 135.2864659 -43.52734375 133.34375 C-46.06541072 129.93048752 -46.52734375 128.70462656 -46.52734375 124.34375 C-45.37878906 124.18519531 -44.23023438 124.02664062 -43.046875 123.86328125 C-24.09472718 121.08649979 -6.79335506 114.91995972 5.47265625 99.34375 C15.22477365 84.07226195 19.3897468 66.34414189 15.78125 48.3984375 C12.37705521 35.436859 5.99453114 25.62586545 -3.52734375 16.34375 C-4.18734375 16.01375 -4.84734375 15.68375 -5.52734375 15.34375 C-5.52734375 14.68375 -5.52734375 14.02375 -5.52734375 13.34375 C-6.23761719 13.07433594 -6.94789063 12.80492188 -7.6796875 12.52734375 C-10.59533382 11.31549075 -13.30625231 9.8946193 -16.08984375 8.40625 C-30.56908804 1.21061098 -46.89149241 0.07384562 -62.51171875 4.3125 C-79.10747828 9.98773383 -91.37539355 20.76996673 -99.27734375 36.40625 C-101.72180761 42.0448133 -102.89622996 47.93808147 -103.92089844 53.97485352 C-104.94390239 59.42550921 -106.48382123 62.47993959 -110.52734375 66.34375 C-113.41900611 67.51083535 -115.3231289 67.34375 -118.52734375 67.34375 C-120.52734375 65.34375 -120.52734375 65.34375 -120.609375 62.54296875 C-118.86835901 39.85929662 -111.21387264 20.52929716 -94.04296875 5.11328125 C-66.8421773 -17.39917503 -29.4849991 -19.32247236 0 0 Z " fill="#7CCE79" transform="translate(373.52734375,12.65625)"/>
<path d="M0 0 C0.0256589 6.4188551 0.0429944 12.83769666 0.05493164 19.2565918 C0.05991574 21.43368016 0.06670544 23.61076525 0.07543945 25.7878418 C0.22073936 62.97606997 0.22073936 62.97606997 -5 69 C-7.53810939 70.81065963 -9.96800631 72.23212078 -13 73 C-14.65 72.67 -16.3 72.34 -18 72 C-17.67 55.83 -17.34 39.66 -17 23 C-18.65 29.93 -20.3 36.86 -22 44 C-23.02466378 48.11046 -24.05634551 52.21400108 -25.125 56.3125 C-25.36347656 57.24771484 -25.60195312 58.18292969 -25.84765625 59.14648438 C-28.64755258 69.9147343 -28.64755258 69.9147343 -31 75 C-33.88698466 76.13515078 -36.67556463 76.10771228 -39.75 76.0625 C-40.54921875 76.05347656 -41.3484375 76.04445313 -42.171875 76.03515625 C-42.77515625 76.02355469 -43.3784375 76.01195312 -44 76 C-47.33333333 61 -50.66666667 46 -54 31 C-54.17373549 33.47883314 -54.33889799 35.95783524 -54.5 38.4375 C-54.57154297 39.44006836 -54.57154297 39.44006836 -54.64453125 40.46289062 C-55.00725207 46.18869791 -55.01704553 51.8937353 -54.99598694 57.62974548 C-54.97305829 67.61420976 -55.17916125 77.59542187 -55.37231445 87.57763672 C-55.43791422 91.02174728 -55.49732479 94.46593243 -55.55664062 97.91015625 C-55.59857999 100.12761135 -55.64088459 102.34505959 -55.68359375 104.5625 C-55.70866249 106.08617187 -55.70866249 106.08617187 -55.73423767 107.640625 C-56.07919705 124.33941087 -56.07919705 124.33941087 -59.3125 128.4375 C-63.30162162 132.24108108 -63.30162162 132.24108108 -66 133 C-67.67363439 132.70362724 -69.34189916 132.37361812 -71 132 C-71.15937199 107.95567036 -70.77099137 83.93008687 -70.25537109 59.8918457 C-70.14338414 54.64567159 -70.04375204 49.39933166 -69.94656563 44.15286541 C-69.86899319 40.07883645 -69.78278638 36.00502411 -69.6941185 31.93122292 C-69.65342107 29.99313661 -69.61597079 28.05497925 -69.58185196 26.11676598 C-69.53393451 23.4404293 -69.47386452 20.76463569 -69.41064453 18.08862305 C-69.39913361 17.29359879 -69.38762268 16.49857452 -69.37576294 15.67945862 C-69.22828423 10.22828423 -69.22828423 10.22828423 -67 8 C-64.64138624 7.53289067 -62.26078271 7.17381573 -59.875 6.875 C-57.95300781 6.62363281 -57.95300781 6.62363281 -55.9921875 6.3671875 C-51.98062029 5.93301788 -48.03247013 5.93713298 -44 6 C-41.71299503 14.93905495 -39.53739342 23.86773377 -37.7109375 32.9140625 C-36.99364601 36.02758049 -36.02891975 38.97738393 -35 42 C-34.67725098 40.82381104 -34.35450195 39.64762207 -34.02197266 38.43579102 C-32.82605339 34.08573117 -31.61971584 29.73861893 -30.41015625 25.39233398 C-29.88743534 23.50836069 -29.3675695 21.62359287 -28.85058594 19.73803711 C-28.10835286 17.03286769 -27.35600541 14.33069215 -26.6015625 11.62890625 C-26.3712735 10.78099014 -26.1409845 9.93307404 -25.90371704 9.0594635 C-25.3293066 7.02171664 -24.6722505 5.0075953 -24 3 C-20.93333703 1.46666851 -17.61733772 1.34483924 -14.25 0.9375 C-13.54617187 0.84662109 -12.84234375 0.75574219 -12.1171875 0.66210938 C-11.42367187 0.57638672 -10.73015625 0.49066406 -10.015625 0.40234375 C-9.07638184 0.28620728 -9.07638184 0.28620728 -8.11816406 0.16772461 C-5.40799567 -0.04687724 -2.71737051 -0.02485694 0 0 Z " fill="#E12A5B" transform="translate(206,96)"/>
<path d="M0 0 C-0.24003837 11.78035278 -0.48330036 23.56063439 -0.73049068 35.34083939 C-0.84521801 40.81297072 -0.95890373 46.28511926 -1.07006836 51.75732422 C-1.17772378 57.05478152 -1.28829884 62.35217109 -1.40075874 67.6495285 C-1.44282025 69.65372383 -1.48389271 71.65794021 -1.5238781 73.66217804 C-1.78663964 86.79064622 -2.27004511 99.88900074 -3 113 C-5.83269666 114.41634833 -8.47466438 114.3463005 -11.625 114.5625 C-12.81351562 114.64628906 -14.00203125 114.73007813 -15.2265625 114.81640625 C-16.14179688 114.87699219 -17.05703125 114.93757813 -18 115 C-25.18819079 101.36509369 -31.10825285 87.234044 -37 73 C-37.04487549 74.05912598 -37.08975098 75.11825195 -37.13598633 76.20947266 C-37.30686922 80.15743716 -37.49564384 84.1043817 -37.68969727 88.05126953 C-37.7710425 89.75612325 -37.84760325 91.46121253 -37.91918945 93.16650391 C-38.02323323 95.62480722 -38.14474132 98.0817354 -38.26953125 100.5390625 C-38.29779495 101.29555084 -38.32605865 102.05203918 -38.35517883 102.83145142 C-38.61512672 107.53418392 -39.4426767 110.91605875 -42 115 C-45.17766402 117.5015653 -47.96269506 119.37887616 -52 120 C-53.22892754 116.31321739 -53.12408068 112.92665895 -53.08984375 109.08984375 C-53.08605209 108.29642075 -53.08226044 107.50299774 -53.07835388 106.68553162 C-53.02276985 98.17411637 -52.84428713 89.66515188 -52.62768555 81.15649414 C-52.56193361 78.53996103 -52.50251423 75.92333027 -52.44335938 73.30664062 C-52.23966787 64.83769388 -51.97530808 56.4235504 -51 48 C-48.93827387 47.66191314 -46.8755797 47.32972639 -44.8125 47 C-43.66394531 46.814375 -42.51539063 46.62875 -41.33203125 46.4375 C-38.49584607 46.06510523 -35.85280436 45.91403979 -33 46 C-28.32940974 54.95787981 -24.23763384 64.00813844 -20.48046875 73.3828125 C-19.40667479 76.00638298 -18.28695271 78.48426193 -17 81 C-16.32381578 70.94637734 -15.91373928 60.91605678 -15.7890625 50.83984375 C-15.7747821 49.7894693 -15.76050171 48.73909485 -15.74578857 47.65689087 C-15.68818874 43.31304723 -15.63321395 38.96933939 -15.59863281 34.62524414 C-15.57095475 31.40480588 -15.52516724 28.18502532 -15.4765625 24.96484375 C-15.47330963 23.99594711 -15.47005676 23.02705048 -15.46670532 22.02879333 C-15.33923472 14.93263275 -14.77899898 7.77899898 -9.5625 2.5625 C-8.716875 2.046875 -7.87125 1.53125 -7 1 C-5.948125 0.3503125 -5.948125 0.3503125 -4.875 -0.3125 C-3 -1 -3 -1 0 0 Z " fill="#F74466" transform="translate(323,39)"/>
<path d="M0 0 C0.30260773 3.85824861 0.3752043 6.31212545 -1.5 9.75 C-7.89707526 15.50736773 -16.74691766 15.85021914 -24.9296875 16.81640625 C-31.15740882 17.42737642 -31.15740882 17.42737642 -36 21 C-36.33425735 23.62625139 -36.33425735 23.62625139 -36 26 C-30.6410745 28.22893362 -25.30174477 30.23727816 -19.75 31.9375 C-13.21318349 34.10245335 -9.56692677 36.17953182 -6.125 42.375 C-3.94610343 49.39588896 -4.83016706 55.4692449 -8 62 C-14.17471525 71.09872062 -21.14727832 74.83780804 -31.75569153 76.90211487 C-38.48423984 78.16526161 -45.26143129 78.97242518 -52.06494141 79.70788574 C-55.75716315 80.1073031 -59.44705938 80.5268612 -63.13671875 80.94921875 C-63.87965179 81.03414581 -64.62258484 81.11907288 -65.38803101 81.20657349 C-73.91771137 82.19803918 -82.40779626 83.45268209 -90.89135742 84.78100586 C-107.35008443 87.27171053 -107.35008443 87.27171053 -111.87109375 85.10205078 C-115.53449441 82.34242073 -116.98078936 79.38260576 -118 75 C-114.37345578 72.79900108 -110.66028029 72.37706723 -106.52856445 71.88671875 C-105.78165848 71.79210358 -105.0347525 71.6974884 -104.26521301 71.6000061 C-101.79869126 71.28912897 -99.33103088 70.9884602 -96.86328125 70.6875 C-95.14168392 70.47170912 -93.42018338 70.25514472 -91.69877625 70.0378418 C-87.16397266 69.46692917 -82.6282103 68.90406989 -78.09210205 68.34362793 C-70.84984382 67.44830473 -63.60868091 66.54436905 -56.36833763 65.63369751 C-53.84915817 65.31855188 -51.32933576 65.00900281 -48.80940247 64.69995117 C-35.16792872 64.04426528 -35.16792872 64.04426528 -24 58 C-23.00922702 55.54713404 -23.00922702 55.54713404 -23 53 C-26.34974893 48.7859259 -31.60208463 48.25705855 -36.57617188 46.98242188 C-43.60278973 45.07616646 -48.82885329 42.1794766 -53 36 C-55.3153042 30.21173951 -54.17402242 23.63269445 -52 18 C-47.54396713 10.3338645 -41.32868955 5.8453476 -33 3 C-29.97506905 2.36231784 -26.93212081 1.89258593 -23.875 1.4375 C-23.03130859 1.30891602 -22.18761719 1.18033203 -21.31835938 1.04785156 C-4.4225873 -1.47419577 -4.4225873 -1.47419577 0 0 Z " fill="#36A7FB" transform="translate(133,105)"/>
<path d="M0 0 C3.40767975 10.0023981 -2.06442559 23.8220256 -6.3828125 32.91015625 C-9.06946382 38.0232335 -12.04169867 42.67992256 -15.703125 47.1484375 C-17.22290025 49.3182371 -18.0500111 51.53517757 -19 54 C-17.78775757 53.84180786 -17.78775757 53.84180786 -16.55102539 53.68041992 C-2.33109077 51.82765644 11.89008155 49.98455633 26.125 48.25 C27.15359131 48.12262451 28.18218262 47.99524902 29.24194336 47.86401367 C30.67292358 47.69156128 30.67292358 47.69156128 32.1328125 47.515625 C32.95668457 47.41540039 33.78055664 47.31517578 34.62939453 47.21191406 C37.09877915 46.9911699 39.5221121 46.9636334 42 47 C42.48621272 54.17163759 42.48621272 54.17163759 40.3125 57.875 C36.6730029 61.21940274 32.85245277 62.18689662 28.03125 62.82421875 C27.01063477 62.96239014 25.99001953 63.10056152 24.93847656 63.24291992 C23.8037793 63.38963135 22.66908203 63.53634277 21.5 63.6875 C20.29053711 63.84903564 19.08107422 64.01057129 17.83496094 64.17700195 C14.96926313 64.55948797 12.10298375 64.93726145 9.23632812 65.3125 C4.2057129 65.97159261 -0.82356596 66.64055973 -5.8527832 67.31022644 C-16.41668751 68.71669063 -26.98118127 70.118759 -37.546875 71.51171875 C-38.56783264 71.64698975 -39.58879028 71.78226074 -40.64068604 71.92163086 C-57.52114493 74.14205045 -57.52114493 74.14205045 -64.25 74.25 C-65.22453125 74.27578125 -66.1990625 74.3015625 -67.203125 74.328125 C-70.50617206 73.94061669 -72.32470866 72.9427159 -75 71 C-77.53806697 67.58673752 -78 66.36087656 -78 62 C-76.27716797 61.76216797 -76.27716797 61.76216797 -74.51953125 61.51953125 C-55.60010143 58.74754348 -38.21523737 52.59262915 -26 37 C-22.07431651 30.63478462 -18.95498083 23.81216108 -16.5234375 16.75 C-15.28658251 13.38407846 -13.90543569 11.40589658 -11.0625 9.125 C-10.05896484 8.29355469 -10.05896484 8.29355469 -9.03515625 7.4453125 C-7 6 -7 6 -4.85546875 4.9375 C-2.48965127 3.74213959 -1.45247918 2.17871876 0 0 Z " fill="#300494" transform="translate(405,75)"/>
<path d="M0 0 C1.06825256 2.14097595 1.06825256 2.14097595 1.87524414 5.00366211 C2.18559097 6.07245102 2.49593781 7.14123993 2.81568909 8.24241638 C3.13561325 9.40894241 3.45553741 10.57546844 3.78515625 11.77734375 C4.12751816 12.97299454 4.46988007 14.16864532 4.82261658 15.40052795 C5.7329804 18.59105318 6.62839114 21.78502802 7.51678467 24.98168945 C8.41408323 28.19755292 9.32999442 31.40802492 10.24414062 34.61914062 C11.88963124 40.40542835 13.51646683 46.19673732 15.13821411 51.98971558 C16.19182765 55.67006873 17.3179134 59.32565172 18.47215271 62.9756012 C19 65 19 65 19 68 C17.10507994 68.33848652 15.20901534 68.67056911 13.3125 69 C12.25675781 69.185625 11.20101562 69.37125 10.11328125 69.5625 C4.78148921 70.31176061 4.78148921 70.31176061 2 70 C0.09234178 67.13851267 -0.4283509 65.64699621 -1.0625 62.375 C-1.47094016 59.40230348 -1.47094016 59.40230348 -3 57 C-5.47985314 57.23082165 -7.91212896 57.5225073 -10.375 57.875 C-11.40367187 58.01228516 -11.40367187 58.01228516 -12.453125 58.15234375 C-15.42618462 58.5630193 -18.14596413 59.04865471 -21 60 C-21.8850828 62.39475581 -22.56885816 64.6024857 -23.1875 67.0625 C-23.785625 69.351875 -24.38375 71.64125 -25 74 C-32.425 74.99 -32.425 74.99 -40 76 C-41.35968872 73.28062256 -40.6478719 72.31711533 -39.69921875 69.4609375 C-39.38637939 68.50364746 -39.07354004 67.54635742 -38.7512207 66.56005859 C-38.40019287 65.50898926 -38.04916504 64.45791992 -37.6875 63.375 C-36.94402152 61.10458901 -36.20190147 58.83373286 -35.4609375 56.5625 C-35.06229492 55.34433594 -34.66365234 54.12617188 -34.25292969 52.87109375 C-31.82313727 45.39994721 -29.52007114 37.88792126 -27.19564819 30.38348389 C-24.93973996 23.10454742 -22.64772374 15.83897187 -20.26171875 8.6015625 C-19.85268311 7.35971191 -19.44364746 6.11786133 -19.0222168 4.83837891 C-18 2 -18 2 -17 1 C-14.90565724 0.5735369 -12.79864779 0.20846272 -10.6875 -0.125 C-9.53636719 -0.31320313 -8.38523438 -0.50140625 -7.19921875 -0.6953125 C-2.61013274 -1.13236831 -2.61013274 -1.13236831 0 0 Z M-11 20 C-15.40336208 32.22935976 -15.40336208 32.22935976 -17 45 C-13.04 44.34 -9.08 43.68 -5 43 C-5.61678983 39.72742095 -6.24303189 36.45715059 -6.875 33.1875 C-7.04902344 32.25873047 -7.22304687 31.32996094 -7.40234375 30.37304688 C-7.57636719 29.48037109 -7.75039062 28.58769531 -7.9296875 27.66796875 C-8.08679199 26.84578857 -8.24389648 26.0236084 -8.40576172 25.17651367 C-8.94968988 22.73316798 -8.94968988 22.73316798 -11 20 Z " fill="#E42E58" transform="translate(249,91)"/>
<path d="M0 0 C6.75 0.75 6.75 0.75 9 3 C11.57061311 3.64767793 11.57061311 3.64767793 14 4 C14.13139908 25.42209327 13.96557989 46.83118163 13.5625 68.25 C13.54285187 69.36581451 13.52320374 70.48162903 13.50296021 71.6312561 C13.44546034 74.84282326 13.38195077 78.05421301 13.31640625 81.265625 C13.29968872 82.21743149 13.28297119 83.16923798 13.26574707 84.14988708 C12.90739799 100.3632825 12.90739799 100.3632825 9.6875 104.4375 C5.69837838 108.24108108 5.69837838 108.24108108 3 109 C1.32636561 108.70362724 -0.34189916 108.37361812 -2 108 C-2.27624272 71.9991993 -1.52340204 35.96894262 0 0 Z " fill="#3AA1FC" transform="translate(137,120)"/>
<path d="M0 0 C2.28700497 8.93905495 4.46260658 17.86773377 6.2890625 26.9140625 C7.00611506 30.02654338 7.94178991 32.98817129 9 36 C9.66 34.68 10.32 33.36 11 32 C14.63 32.99 18.26 33.98 22 35 C20.62659953 42.27172423 18.91225391 49.36974502 16.9375 56.5 C16.5343457 57.98113281 16.5343457 57.98113281 16.12304688 59.4921875 C14.1352821 66.72943579 14.1352821 66.72943579 13 69 C10.06699331 70.0317435 7.33787164 70.10790988 4.25 70.0625 C3.45078125 70.05347656 2.6515625 70.04445313 1.828125 70.03515625 C1.22484375 70.02355469 0.6215625 70.01195312 0 70 C-0.33994995 68.45844238 -0.33994995 68.45844238 -0.68676758 66.88574219 C-1.54055515 63.01622893 -2.39655606 59.14720792 -3.25317383 55.27832031 C-3.62127625 53.61438809 -3.98880484 51.95032881 -4.35571289 50.28613281 C-6.44245582 40.82319489 -8.57049945 31.3824165 -11 22 C-11.78375 22.02964844 -12.5675 22.05929688 -13.375 22.08984375 C-16.60174698 21.97940449 -17.50616238 20.94831064 -20 19 C-21.65726168 18.62267703 -23.3242036 18.28389314 -25 18 C-25.05384521 15.70858714 -25.09272087 13.41681812 -25.125 11.125 C-25.14820313 9.84882812 -25.17140625 8.57265625 -25.1953125 7.2578125 C-25 4 -25 4 -23 2 C-20.64138624 1.53289067 -18.26078271 1.17381573 -15.875 0.875 C-13.95300781 0.62363281 -13.95300781 0.62363281 -11.9921875 0.3671875 C-7.98062029 -0.06698212 -4.03247013 -0.06286702 0 0 Z " fill="#2138AB" transform="translate(162,102)"/>
<path d="M0 0 C0.30260773 3.85824861 0.3752043 6.31212545 -1.5 9.75 C-7.89707526 15.50736773 -16.74691766 15.85021914 -24.9296875 16.81640625 C-31.15740882 17.42737642 -31.15740882 17.42737642 -36 21 C-36.33425735 23.62625139 -36.33425735 23.62625139 -36 26 C-30.6410745 28.22893362 -25.30174477 30.23727816 -19.75 31.9375 C-14.78469748 33.56064909 -11.59654701 35.20904504 -8 39 C-7.67 39.99 -7.34 40.98 -7 42 C-10.25031784 41.86076462 -13.50016061 41.71245815 -16.75 41.5625 C-18.13058594 41.50352539 -18.13058594 41.50352539 -19.5390625 41.44335938 C-20.42851563 41.40146484 -21.31796875 41.35957031 -22.234375 41.31640625 C-23.45979004 41.26141968 -23.45979004 41.26141968 -24.70996094 41.20532227 C-27 41 -27 41 -29.02026367 40.47753906 C-31.25582938 39.93829051 -33.146185 39.94977049 -35.44140625 40.04296875 C-36.27220703 40.06423828 -37.10300781 40.08550781 -37.95898438 40.10742188 C-39.6989627 40.16093959 -41.43862065 40.22610427 -43.17773438 40.30273438 C-49.52991285 40.43599686 -49.52991285 40.43599686 -52.046875 38.1015625 C-54.53251432 32.62093154 -54.44989379 27.47441582 -53.375 21.5625 C-49.95787947 12.70905136 -44.21017284 7.95457056 -35.82421875 3.96484375 C-31.90497633 2.62590478 -27.96335781 2.04609686 -23.875 1.4375 C-23.03130859 1.30891602 -22.18761719 1.18033203 -21.31835938 1.04785156 C-4.4225873 -1.47419577 -4.4225873 -1.47419577 0 0 Z " fill="#2550AD" transform="translate(133,105)"/>
<path d="M0 0 C1.29164063 -0.03738281 2.58328125 -0.07476562 3.9140625 -0.11328125 C7.375 0.3125 7.375 0.3125 9.7734375 2.20703125 C12.67058275 6.01571732 12.76769758 8.52158951 12.375 13.3125 C11.24802723 15.85187969 9.90302548 17.97271098 8.375 20.3125 C9.365 20.6425 10.355 20.9725 11.375 21.3125 C13.85857838 25.00955315 13.46517004 27.89174664 12.83203125 32.12890625 C12.18024142 35.24301321 11.58196788 36.96759663 9.375 39.3125 C1.27365899 43.38987823 -8.71682035 44.3125 -17.625 44.3125 C-17.625 30.7825 -17.625 17.2525 -17.625 3.3125 C-11.78994645 0.39497323 -6.47384697 0.12324959 0 0 Z M-6.625 9.3125 C-6.69648199 10.66493917 -6.70899454 12.02084367 -6.6875 13.375 C-6.666875 14.674375 -6.64625 15.97375 -6.625 17.3125 C-3.16 16.8175 -3.16 16.8175 0.375 16.3125 C1.05301034 13.41176819 1.05301034 13.41176819 1.375 10.3125 C-0.45765325 8.04410017 -0.45765325 8.04410017 -3.1875 8.125 C-5.57189723 8.04246677 -5.57189723 8.04246677 -6.625 9.3125 Z M-7.625 26.3125 C-7.69648199 27.66493917 -7.70899454 29.02084367 -7.6875 30.375 C-7.666875 31.674375 -7.64625 32.97375 -7.625 34.3125 C-4.02491481 34.63978047 -2.20888508 34.71672813 0.8125 32.625 C2.67477201 30.39440192 2.67477201 30.39440192 2.125 27.5625 C1.8775 26.82 1.63 26.0775 1.375 25.3125 C-3.42470742 24.78416284 -3.42470742 24.78416284 -7.625 26.3125 Z " fill="#2F2F2F" transform="translate(198.625,175.6875)"/>
<path d="M0 0 C-2.82351475 2.82351475 -5.82507447 2.58227467 -9.625 2.9375 C-14.22020188 3.42225396 -18.44924865 3.88870666 -22.75 5.6875 C-26.13306719 7.05373867 -26.74423707 7.05458408 -30 6 C-30.185625 7.1446875 -30.185625 7.1446875 -30.375 8.3125 C-31 11 -31 11 -33 14 C-26.65758005 15.15316726 -20.43311296 15.09507063 -14 15 C-14 15.33 -14 15.66 -14 16 C-14.85303711 16.10022461 -15.70607422 16.20044922 -16.58496094 16.30371094 C-20.64039986 16.78228963 -24.69532389 17.26500699 -28.75 17.75 C-29.48952911 17.8382605 -30.22905823 17.926521 -30.99099731 18.01745605 C-42.63742008 19.41255375 -54.24610792 20.97222755 -65.83691406 22.78027344 C-82.35621434 25.26893432 -82.35621434 25.26893432 -86.87084961 23.10205078 C-90.53451972 20.34263133 -91.98077831 17.38265328 -93 13 C-89.37345578 10.79900108 -85.66028029 10.37706723 -81.52856445 9.88671875 C-80.78165848 9.79210358 -80.0347525 9.6974884 -79.26521301 9.6000061 C-76.79869126 9.28912897 -74.33103088 8.9884602 -71.86328125 8.6875 C-70.14168392 8.47170912 -68.42018338 8.25514472 -66.69877625 8.0378418 C-62.16397266 7.46692917 -57.6282103 6.90406989 -53.09210205 6.34362793 C-45.84984382 5.44830473 -38.60868091 4.54436905 -31.36833763 3.63369751 C-28.84915817 3.31855188 -26.32933576 3.00900281 -23.80940247 2.69995117 C-14.6053698 1.58130247 -14.6053698 1.58130247 -5.51245117 -0.20703125 C-2 -1 -2 -1 0 0 Z " fill="#32B5F2" transform="translate(108,167)"/>
<path d="M0 0 C1.33463542 0.94401042 2.66927083 1.88802083 4.00390625 2.83203125 C6.88724231 4.51914961 9.91488559 5.71973255 13 7 C12.20335937 8.30710937 12.20335937 8.30710937 11.390625 9.640625 C5.78308794 19.01966156 1.69857871 27.95306914 0.0625 38.875 C-0.81351841 44.05623709 -1.90617201 46.6181421 -6 50 C-8.87183226 50.91501757 -10.91162176 51 -14 51 C-16 49 -16 49 -16.08203125 46.19921875 C-14.89645514 30.75236475 -11.56672812 11.56672812 0 0 Z " fill="#F74168" transform="translate(269,29)"/>
<path d="M0 0 C2.8595236 2.1822336 3.8969645 3.33459011 4.45410156 6.93261719 C4.42268066 8.5979248 4.42268066 8.5979248 4.390625 10.296875 C4.37128906 12.10478516 4.37128906 12.10478516 4.3515625 13.94921875 C4.31804687 15.20347656 4.28453125 16.45773438 4.25 17.75 C4.23195313 19.01972656 4.21390625 20.28945312 4.1953125 21.59765625 C4.14817153 24.73253077 4.08237664 27.8658856 4 31 C2.5225254 31.36116046 1.04295325 31.71375048 -0.4375 32.0625 C-1.67306641 32.35833984 -1.67306641 32.35833984 -2.93359375 32.66015625 C-3.61550781 32.77230469 -4.29742187 32.88445312 -5 33 C-6 32 -6 32 -6.11352539 29.77514648 C-6.10828857 28.81680908 -6.10305176 27.85847168 -6.09765625 26.87109375 C-6.09443359 25.83662109 -6.09121094 24.80214844 -6.08789062 23.73632812 C-6.07951172 22.64771484 -6.07113281 21.55910156 -6.0625 20.4375 C-6.05798828 19.34501953 -6.05347656 18.25253906 -6.04882812 17.12695312 C-6.03699826 14.41791505 -6.02051543 11.70898401 -6 9 C-7.65 9.33 -9.3 9.66 -11 10 C-11.33 17.92 -11.66 25.84 -12 34 C-16.455 34.495 -16.455 34.495 -21 35 C-22 34 -22 34 -22.11352539 31.13256836 C-22.10828857 29.88096924 -22.10305176 28.62937012 -22.09765625 27.33984375 C-22.0962413 26.67537735 -22.09482635 26.01091095 -22.09336853 25.3263092 C-22.08775518 23.19666101 -22.07520054 21.06711661 -22.0625 18.9375 C-22.05748671 17.49674631 -22.05292351 16.05599097 -22.04882812 14.61523438 C-22.03778145 11.07678898 -22.02050792 7.53840461 -22 4 C-15.38483844 1.27582481 -7.18730421 -1.05180062 0 0 Z " fill="#2F2F2F" transform="translate(253,179)"/>
<path d="M0 0 C0.76183594 -0.01417969 1.52367187 -0.02835938 2.30859375 -0.04296875 C4.86108462 0.21803118 6.42485655 0.77336664 8.5625 2.1875 C9.61509482 5.34528446 9.69166606 7.59944879 9.6953125 10.9140625 C9.69660156 12.0278125 9.69789063 13.1415625 9.69921875 14.2890625 C9.69535156 15.45179688 9.69148438 16.61453125 9.6875 17.8125 C9.69330078 19.56820312 9.69330078 19.56820312 9.69921875 21.359375 C9.69792969 22.47054687 9.69664062 23.58171875 9.6953125 24.7265625 C9.69418457 25.74959473 9.69305664 26.77262695 9.69189453 27.82666016 C9.5625 30.1875 9.5625 30.1875 8.5625 31.1875 C6.00630996 31.2190579 3.46469659 31.11923369 0.91015625 31.02734375 C-1.63049439 30.94226747 -1.63049439 30.94226747 -3.4375 33.1875 C-7.37309511 34.15283465 -9.57902383 34.57941304 -13.3125 32.875 C-15.4375 31.1875 -15.4375 31.1875 -16.4375 29.1875 C-16.83887875 25.01316105 -16.69944303 22.69198287 -14.75 18.9375 C-10.52744747 13.91608618 -6.9010514 12.82118151 -0.4375 12.1875 C-0.7675 10.8675 -1.0975 9.5475 -1.4375 8.1875 C-2.4275 8.5175 -3.4175 8.8475 -4.4375 9.1875 C-4.7675 10.1775 -5.0975 11.1675 -5.4375 12.1875 C-8.7375 12.1875 -12.0375 12.1875 -15.4375 12.1875 C-14.58702221 7.7650155 -14.06421136 5.6942028 -10.5 2.8125 C-6.82455316 0.8622629 -4.10922888 0.0346478 0 0 Z M-4.4375 19.1875 C-5.79368499 20.31284105 -5.79368499 20.31284105 -5.5 23.25 C-5.479375 24.219375 -5.45875 25.18875 -5.4375 26.1875 C-3.4212767 25.47186734 -3.4212767 25.47186734 -1.4375 24.1875 C-0.63221111 22.13749129 -0.63221111 22.13749129 -0.4375 20.1875 C-2.38353274 19.59679986 -2.38353274 19.59679986 -4.4375 19.1875 Z " fill="#2D2D2D" transform="translate(292.4375,173.8125)"/>
<path d="M0 0 C2.54859606 9.96151759 4.92259469 19.92773184 7 30 C2.62769205 29.47100472 -1.27848259 28.7510023 -5.375 27.125 C-6.22835937 26.79757813 -7.08171875 26.47015625 -7.9609375 26.1328125 C-10 25 -10 25 -11 22 C-11.7425 22.061875 -12.485 22.12375 -13.25 22.1875 C-16.52834303 21.96397661 -17.46316552 20.98190193 -20 19 C-21.65726168 18.62267703 -23.3242036 18.28389314 -25 18 C-25.05384521 15.70858714 -25.09272087 13.41681812 -25.125 11.125 C-25.14820313 9.84882812 -25.17140625 8.57265625 -25.1953125 7.2578125 C-25 4 -25 4 -23 2 C-20.64138624 1.53289067 -18.26078271 1.17381573 -15.875 0.875 C-13.95300781 0.62363281 -13.95300781 0.62363281 -11.9921875 0.3671875 C-7.98062029 -0.06698212 -4.03247013 -0.06286702 0 0 Z " fill="#E1275B" transform="translate(162,102)"/>
<path d="M0 0 C7.85661185 7.85661185 9.56322286 21.50044355 10.18359375 32.15234375 C9.91215131 36.36258931 7.92346295 38.07653705 5 41 C3.35857037 42.0409066 1.69287785 43.04504326 0 44 C-0.721875 44.721875 -1.44375 45.44375 -2.1875 46.1875 C-2.785625 46.785625 -3.38375 47.38375 -4 48 C-4.66 48 -5.32 48 -6 48 C-5.97905273 47.37657715 -5.95810547 46.7531543 -5.93652344 46.11083984 C-5.57092434 33.55320489 -5.7719046 22.92017257 -10 11 C-10.36415917 9.3397961 -10.70864658 7.67451547 -11 6 C-10.113125 5.566875 -9.22625 5.13375 -8.3125 4.6875 C-5.45570545 3.23215183 -2.72603137 1.68372526 0 0 Z " fill="#F84C61" transform="translate(396,40)"/>
<path d="M0 0 C-0.25136719 1.89298828 -0.25136719 1.89298828 -0.5078125 3.82421875 C-1.01410928 8.86498052 -1.04802604 13.83622065 -0.9921875 18.89453125 C-0.98431213 19.69470673 -0.97643677 20.4948822 -0.96832275 21.31930542 C-0.93180093 24.66776003 -0.88948215 28.01590572 -0.82861328 31.36401367 C-0.78625317 33.832561 -0.76285254 36.3007199 -0.7421875 38.76953125 C-0.72356659 39.52168411 -0.70494568 40.27383698 -0.6857605 41.04878235 C-0.66375335 45.56015168 -1.1863994 48.42752871 -4 52 C-7.68250477 54.09007028 -10.81863255 54.19448221 -15 54 C-15 51.36 -15 48.72 -15 46 C-13.515 45.505 -13.515 45.505 -12 45 C-11.85719857 40.33692578 -11.7147919 35.67383973 -11.57275391 31.01074219 C-11.5243604 29.42382479 -11.47585828 27.83691071 -11.42724609 26.25 C-11.35746283 23.97136275 -11.28806785 21.69271395 -11.21875 19.4140625 C-11.19687622 18.70255035 -11.17500244 17.99103821 -11.15246582 17.25796509 C-11.03956031 13.62962789 -11.03956031 13.62962789 -11 10 C-11 7 -11 4 -11 1 C-4.03571429 -1.27678571 -4.03571429 -1.27678571 0 0 Z " fill="#2F2F2F" transform="translate(273,167)"/>
<path d="M0 0 C0 3.66666667 0 7.33333333 0 11 C0.00523682 11.83635986 0.01047363 12.67271973 0.01586914 13.53442383 C0.03669679 16.96044038 0.04962701 20.38644476 0.0625 23.8125 C0.07087891 25.00166016 0.07925781 26.19082031 0.08789062 27.41601562 C0.09111328 28.56392578 0.09433594 29.71183594 0.09765625 30.89453125 C0.10289307 31.94487549 0.10812988 32.99521973 0.11352539 34.07739258 C0.00650093 36.83263942 -0.37508444 39.31962811 -1 42 C-2.47831221 42.19412181 -3.95769316 42.38012131 -5.4375 42.5625 C-6.67306641 42.71912109 -6.67306641 42.71912109 -7.93359375 42.87890625 C-8.95646484 42.93884766 -8.95646484 42.93884766 -10 43 C-11 42 -11 42 -11.11352539 38.12280273 C-11.11336621 36.39305833 -11.10766849 34.66330919 -11.09765625 32.93359375 C-11.0962413 32.02497086 -11.09482635 31.11634796 -11.09336853 30.18019104 C-11.08775193 27.26592779 -11.07519665 24.35174019 -11.0625 21.4375 C-11.05748714 19.46679798 -11.05292386 17.49609476 -11.04882812 15.52539062 C-11.03777711 10.68356441 -11.02050138 5.84179505 -11 1 C-3.34821429 -1.33928571 -3.34821429 -1.33928571 0 0 Z " fill="#2F2E2F" transform="translate(318,161)"/>
<path d="M0 0 C0.02950823 4.39581876 0.04696682 8.7916114 0.0625 13.1875 C0.07087891 14.41404297 0.07925781 15.64058594 0.08789062 16.90429688 C0.10911496 24.94831993 0.0370459 33.01063703 -1 41 C-2 42 -2 42 -4.06640625 42.09765625 C-4.89011719 42.08605469 -5.71382812 42.07445312 -6.5625 42.0625 C-7.38878906 42.05347656 -8.21507812 42.04445312 -9.06640625 42.03515625 C-9.70449219 42.02355469 -10.34257812 42.01195312 -11 42 C-11 28.33333333 -11 14.66666667 -11 1 C-6.79018866 -0.66434402 -4.37219878 -1.06511827 0 0 Z " fill="#2D2D2D" transform="translate(227,173)"/>
<path d="M0 0 C1.11254883 2.26904297 1.11254883 2.26904297 1.95703125 5.2421875 C2.41819336 6.84126953 2.41819336 6.84126953 2.88867188 8.47265625 C3.19353516 9.59542969 3.49839844 10.71820313 3.8125 11.875 C4.13669922 12.99003906 4.46089844 14.10507813 4.79492188 15.25390625 C7.14004781 23.57985657 7.14004781 23.57985657 6 27 C4.05780053 26.02890026 2.11591019 25.0572648 0.17578125 24.08203125 C-1.6842204 23.1570394 -3.55946181 22.26279987 -5.4375 21.375 C-8 20 -8 20 -9 18 C-11.23547027 17.01091133 -11.23547027 17.01091133 -13.875 16.25 C-14.75929687 15.96640625 -15.64359375 15.6828125 -16.5546875 15.390625 C-19.24999837 14.67627191 -19.24999837 14.67627191 -22 17 C-21.54762239 15.08191891 -21.08785537 13.16557967 -20.625 11.25 C-20.24214844 9.64898437 -20.24214844 9.64898437 -19.8515625 8.015625 C-18.37795071 2.79714656 -18.37795071 2.79714656 -17 1 C-14.1015625 0.13671875 -14.1015625 0.13671875 -10.625 -0.3125 C-9.48289063 -0.47363281 -8.34078125 -0.63476562 -7.1640625 -0.80078125 C-2.50635088 -1.09404457 -2.50635088 -1.09404457 0 0 Z " fill="#FC3B69" transform="translate(249,91)"/>
<path d="M0 0 C0.48621272 7.17163759 0.48621272 7.17163759 -1.6875 10.875 C-6.55034236 15.34355784 -12.63160658 15.7551647 -18.9375 16.6875 C-19.81857422 16.82994141 -20.69964844 16.97238281 -21.60742188 17.11914062 C-26.3620159 17.83500085 -30.25203268 18.09065099 -35 17 C-36.66627298 16.96377667 -38.33405374 16.95100158 -40 17 C-37.42667974 14.42667974 -34.85276855 11.85611472 -32.25 9.3125 C-29.98059858 7.21386687 -29.98059858 7.21386687 -29 5 C-27 4.66666667 -25 4.33333333 -23 4 C-22.67 3.34 -22.34 2.68 -22 2 C-19.23083677 1.51866476 -16.54036481 1.15634257 -13.75 0.875 C-12.98558594 0.78863281 -12.22117187 0.70226562 -11.43359375 0.61328125 C-7.60567954 0.19677245 -3.8564982 -0.10798195 0 0 Z " fill="#240677" transform="translate(447,122)"/>
<path d="M0 0 C2.91672884 -0.02700675 5.83320677 -0.04684237 8.75 -0.0625 C9.9875 -0.07506836 9.9875 -0.07506836 11.25 -0.08789062 C12.04921875 -0.09111328 12.8484375 -0.09433594 13.671875 -0.09765625 C14.4050293 -0.10289307 15.13818359 -0.10812988 15.89355469 -0.11352539 C18.0571264 0.00307879 19.90573529 0.46316458 22 1 C23.56228068 1.16163271 25.12810448 1.291066 26.6953125 1.39453125 C27.57574219 1.46349609 28.45617187 1.53246094 29.36328125 1.60351562 C31.2113539 1.74336271 33.06039908 1.87088045 34.91015625 1.98632812 C35.78800781 2.05916016 36.66585937 2.13199219 37.5703125 2.20703125 C38.77324951 2.29174683 38.77324951 2.29174683 40.00048828 2.37817383 C42 3 42 3 43.25732422 4.8503418 C45.37397893 10.97695085 43.67828404 17.31277958 41 23 C39.39453125 24.765625 39.39453125 24.765625 38 26 C37.505 23.03 37.505 23.03 37 20 C37.99 19.67 38.98 19.34 40 19 C41.62323754 15.24092359 42.23994929 12.07913787 42 8 C40.00136244 8.57944932 40.00136244 8.57944932 38 10 C36.70768358 13.04199472 36.70768358 13.04199472 36 16 C35.01 16 34.02 16 33 16 C32.505 15.505 32.505 15.505 32 15 C30.35 17.64 28.7 20.28 27 23 C26.01 22.34 25.02 21.68 24 21 C24.350625 20.443125 24.70125 19.88625 25.0625 19.3125 C26.22315134 16.44956002 25.69931438 14.94885713 25 12 C24.38479492 11.80365967 23.76958984 11.60731934 23.13574219 11.4050293 C20.33786816 10.50714498 17.54396809 9.59746208 14.75 8.6875 C13.78191406 8.37876953 12.81382813 8.07003906 11.81640625 7.75195312 C10.88183594 7.44580078 9.94726562 7.13964844 8.984375 6.82421875 C8.12553711 6.54666748 7.26669922 6.26911621 6.38183594 5.9831543 C3.87107812 4.94678471 2.02249567 3.80989382 0 2 C0 1.34 0 0.68 0 0 Z " fill="#38A6F9" transform="translate(84,144)"/>
<path d="M0 0 C7.875 0 7.875 0 11.9375 1 C12.70964844 1.185625 13.48179687 1.37125 14.27734375 1.5625 C14.84582031 1.706875 15.41429687 1.85125 16 2 C16.33 1.34 16.66 0.68 17 0 C16.93954948 2.85628706 16.8523561 5.70765491 16.75 8.5625 C16.72873047 9.76229492 16.72873047 9.76229492 16.70703125 10.98632812 C16.47171693 16.75152894 15.38189355 20.28457116 12 25 C10.03515625 26.59375 10.03515625 26.59375 8.0625 27.5 C7.41410156 27.8196875 6.76570312 28.139375 6.09765625 28.46875 C4 29 4 29 -1 28 C-0.67 18.76 -0.34 9.52 0 0 Z " fill="#252FA8" transform="translate(189,140)"/>
<path d="M0 0 C6.75 0.75 6.75 0.75 9 3 C11.57061311 3.64767793 11.57061311 3.64767793 14 4 C14.02940458 7.16664666 14.04693315 10.33325747 14.0625 13.5 C14.07087891 14.386875 14.07925781 15.27375 14.08789062 16.1875 C14.10763596 21.55823086 13.78835893 26.68633663 13 32 C11.22773547 31.71715982 9.457212 31.42339502 7.6875 31.125 C6.70136719 30.96257812 5.71523437 30.80015625 4.69921875 30.6328125 C2 30 2 30 -1 28 C-1.2487793 25.20263672 -1.2487793 25.20263672 -1.07421875 21.6796875 C-1.01943359 20.42285156 -0.96464844 19.16601562 -0.90820312 17.87109375 C-0.83496498 16.53904434 -0.76139294 15.20701325 -0.6875 13.875 C-0.62424797 12.53522175 -0.56238166 11.19537731 -0.50195312 9.85546875 C-0.34828831 6.5694058 -0.18037667 3.28468758 0 0 Z " fill="#0C2994" transform="translate(137,120)"/>
<path d="M0 0 C6.239443 2.7022123 11.91211899 10.96619334 15.1015625 16.91015625 C14.1015625 19.91015625 14.1015625 19.91015625 11.37890625 21.515625 C9.72568359 22.29873047 9.72568359 22.29873047 8.0390625 23.09765625 C6.93433594 23.62746094 5.82960938 24.15726563 4.69140625 24.703125 C3.83675781 25.10144531 2.98210937 25.49976562 2.1015625 25.91015625 C1.67746094 25.19730469 1.25335938 24.48445313 0.81640625 23.75 C-5.05535434 13.90579021 -5.05535434 13.90579021 -13.8984375 6.91015625 C-13.8984375 6.25015625 -13.8984375 5.59015625 -13.8984375 4.91015625 C-13.0321875 4.82765625 -12.1659375 4.74515625 -11.2734375 4.66015625 C-7.7600864 4.0975394 -7.7600864 4.0975394 -4.7734375 1.78515625 C-1.8984375 -0.08984375 -1.8984375 -0.08984375 0 0 Z " fill="#FBD8C5" transform="translate(381.8984375,21.08984375)"/>
<path d="M0 0 C0 6.6 0 13.2 0 20 C-2.83269666 21.41634833 -5.47466438 21.3463005 -8.625 21.5625 C-9.81351562 21.64628906 -11.00203125 21.73007813 -12.2265625 21.81640625 C-13.14179688 21.87699219 -14.05703125 21.93757813 -15 22 C-16.03290841 20.06891037 -17.05098672 18.129882 -18.0625 16.1875 C-18.91521484 14.56908203 -18.91521484 14.56908203 -19.78515625 12.91796875 C-21 10 -21 10 -20 7 C-17.69645385 6.00729533 -15.50512739 5.1904944 -13.125 4.4375 C-8.74256882 3.00767649 -4.42351495 0 0 0 Z " fill="#2F0892" transform="translate(320,132)"/>
<path d="M0 0 C11.52164009 -0.3690205 11.52164009 -0.3690205 17 2 C17 2.66 17 3.32 17 4 C16.01 4.33 15.02 4.66 14 5 C13.1149172 7.39475581 12.43114184 9.6024857 11.8125 12.0625 C11.214375 14.351875 10.61625 16.64125 10 19 C5.05 19.66 0.1 20.32 -5 21 C-6.33201473 18.33597054 -5.69751146 17.4413616 -4.78515625 14.6484375 C-4.51123047 13.79765625 -4.23730469 12.946875 -3.95507812 12.0703125 C-3.66052734 11.18085938 -3.36597656 10.29140625 -3.0625 9.375 C-2.77181641 8.4778125 -2.48113281 7.580625 -2.18164062 6.65625 C-1.46100166 4.43526435 -0.73354395 2.21675021 0 0 Z " fill="#2626A3" transform="translate(214,146)"/>
<path d="M0 0 C3.37910524 0.84477631 6.49005738 1.85942594 9.75 3.0625 C11.22726563 3.60583984 11.22726563 3.60583984 12.734375 4.16015625 C13.48203125 4.43730469 14.2296875 4.71445313 15 5 C14.7896348 16.81869964 14.7896348 16.81869964 11.6875 20.625 C7.54764777 24.28347407 7.54764777 24.28347407 5 25 C3.35 24.67 1.7 24.34 0 24 C0 16.08 0 8.16 0 0 Z " fill="#FBDD1E" transform="translate(135,204)"/>
<path d="M0 0 C0.66 0.33 1.32 0.66 2 1 C-0.82351475 3.82351475 -3.82507447 3.58227467 -7.625 3.9375 C-12.22020188 4.42225396 -16.44924865 4.88870666 -20.75 6.6875 C-24.13306719 8.05373867 -24.74423707 8.05458408 -28 7 C-28.12375 7.763125 -28.2475 8.52625 -28.375 9.3125 C-29 12 -29 12 -31 15 C-24.65758005 16.15316726 -18.43311296 16.09507063 -12 16 C-12 16.33 -12 16.66 -12 17 C-16.60768401 17.57352948 -21.21583715 18.14307189 -25.82446289 18.70898438 C-27.39100326 18.90190886 -28.95741179 19.09590708 -30.52368164 19.29101562 C-32.77976923 19.57186235 -35.03630845 19.84879765 -37.29296875 20.125 C-37.98899704 20.21249512 -38.68502533 20.29999023 -39.40214539 20.39013672 C-42.95661196 20.82122757 -46.41912581 21.09702623 -50 21 C-47.42215154 18.35247996 -45.08351902 16.05567935 -42 14 C-41.27034634 11.43717258 -41.27034634 11.43717258 -41 9 C-43.31 9 -45.62 9 -48 9 C-48 8.34 -48 7.68 -48 7 C-47.44289841 6.92705215 -46.88579681 6.85410431 -46.31181335 6.77894592 C-40.52031045 6.02000641 -34.72936232 5.25693784 -28.9387207 4.49145508 C-26.77675134 4.20621214 -24.61464216 3.92202695 -22.45239258 3.63891602 C-19.34679508 3.2321034 -16.24171815 2.82150575 -13.13671875 2.41015625 C-12.16788254 2.28407486 -11.19904633 2.15799347 -10.20085144 2.02809143 C-8.84979057 1.84801796 -8.84979057 1.84801796 -7.47143555 1.66430664 C-6.67867722 1.5599379 -5.88591888 1.45556915 -5.06913757 1.34803772 C-2.81201013 1.02316174 -2.81201013 1.02316174 0 0 Z " fill="#49A9E7" transform="translate(106,166)"/>
<path d="M0 0 C-0.3125 1.9375 -0.3125 1.9375 -1 4 C-1.99 4.33 -2.98 4.66 -4 5 C-4.33 5.99 -4.66 6.98 -5 8 C-3.35 8 -1.7 8 0 8 C-3.06117568 10.62386487 -3.73173127 11 -8 11 C-8.33 11.66 -8.66 12.32 -9 13 C-14.61 13 -20.22 13 -26 13 C-26.66 11.68 -27.32 10.36 -28 9 C-26.625 5.75 -26.625 5.75 -25 3 C-23.9171875 3.061875 -23.9171875 3.061875 -22.8125 3.125 C-20.02212339 3.16683094 -20.02212339 3.16683094 -17.7421875 2.03125 C-14.53096465 0.82361064 -11.73145954 0.58551746 -8.3125 0.375 C-6.60513672 0.26285156 -6.60513672 0.26285156 -4.86328125 0.1484375 C-3.2436076 0.06447079 -1.62184868 0 0 0 Z " fill="#2FACFC" transform="translate(103,170)"/>
<path d="M0 0 C0 0.99 0 1.98 0 3 C-0.93972656 3.38091797 -0.93972656 3.38091797 -1.8984375 3.76953125 C-2.71570313 4.11371094 -3.53296875 4.45789063 -4.375 4.8125 C-5.18710937 5.14894531 -5.99921875 5.48539063 -6.8359375 5.83203125 C-9.30147458 6.94439082 -9.30147458 6.94439082 -11 10 C-11.99 10.33 -12.98 10.66 -14 11 C-15.71567661 14.50294871 -15.71567661 14.50294871 -17 18 C-17.66 16.68 -18.32 15.36 -19 14 C-20.17842782 15.40689852 -21.34237398 16.82593625 -22.5 18.25 C-23.1496875 19.03890625 -23.799375 19.8278125 -24.46875 20.640625 C-26.36293496 23.09042994 -26.36293496 23.09042994 -26 27 C-23.62694422 27.41780879 -23.62694422 27.41780879 -21 27 C-20.525625 26.195625 -20.05125 25.39125 -19.5625 24.5625 C-19.046875 23.716875 -18.53125 22.87125 -18 22 C-16.00133314 21.65876419 -14.00097458 21.3274322 -12 21 C-9.43201598 19.63212912 -6.99536674 18.10660105 -4.52734375 16.56640625 C5.55252918 10.31906615 5.55252918 10.31906615 11 11 C10.505 9.515 10.505 9.515 10 8 C10.66 8 11.32 8 12 8 C12.495 9.98 12.495 9.98 13 12 C12.26136719 12.20753906 11.52273438 12.41507813 10.76171875 12.62890625 C-0.39267573 16.01632719 -12.34355395 22.01533092 -19 32 C-20.41791408 31.54554036 -21.83428046 31.08625056 -23.25 30.625 C-24.43335938 30.24214844 -24.43335938 30.24214844 -25.640625 29.8515625 C-27.86627958 29.04826333 -29.90931672 28.10288338 -32 27 C-31.15798086 19.61613985 -25.11000529 15.49712151 -19.6015625 11.07421875 C-13.46002059 6.59228445 -6.8708103 3.22290586 0 0 Z " fill="#9AD993" transform="translate(302,4)"/>
<path d="M0 0 C17.28099174 2.00206612 17.28099174 2.00206612 23.5 8.6875 C25 11 25 11 25 12 C21.81185409 11.88899025 18.62477124 11.75863821 15.4375 11.625 C14.54224609 11.5940625 13.64699219 11.563125 12.72460938 11.53125 C7.48363792 11.30087763 3.05152132 10.49674706 -2 9 C-4.80772133 8.64663701 -7.61140454 8.49911032 -10.4375 8.375 C-11.53481445 8.31699219 -11.53481445 8.31699219 -12.65429688 8.2578125 C-14.43583532 8.16466016 -16.21788122 8.08129714 -18 8 C-18 7.67 -18 7.34 -18 7 C-16.95199219 6.99742187 -15.90398437 6.99484375 -14.82421875 6.9921875 C-13.44526973 6.95466508 -12.06636426 6.91551759 -10.6875 6.875 C-9.65206055 6.87886719 -9.65206055 6.87886719 -8.59570312 6.8828125 C-6.29299308 6.85516124 -6.29299308 6.85516124 -3 6 C-0.9354148 3.08281432 -0.9354148 3.08281432 0 0 Z " fill="#1135A0" transform="translate(101,135)"/>
<path d="M0 0 C2.79192205 -0.05380578 5.5828141 -0.09357669 8.375 -0.125 C9.1690625 -0.14175781 9.963125 -0.15851563 10.78125 -0.17578125 C12.85492015 -0.19335473 14.92883241 -0.10335168 17 0 C19.3129482 2.3129482 19.49580975 3.47904875 20.125 6.625 C20.29257812 7.44226563 20.46015625 8.25953125 20.6328125 9.1015625 C20.75398438 9.72804687 20.87515625 10.35453125 21 11 C19.10507994 11.33848652 17.20901534 11.67056911 15.3125 12 C14.25675781 12.185625 13.20101563 12.37125 12.11328125 12.5625 C6.78148921 13.31176061 6.78148921 13.31176061 4 13 C1.99706653 9.99559979 1.50728374 8.29006055 0.875 4.8125 C0.70742187 3.91144531 0.53984375 3.01039063 0.3671875 2.08203125 C0.24601563 1.39496094 0.12484375 0.70789063 0 0 Z " fill="#271A9C" transform="translate(247,148)"/>
<path d="M0 0 C0.33 0.66 0.66 1.32 1 2 C3.31 2 5.62 2 8 2 C8.3125 4.1875 8.3125 4.1875 8 7 C5.35752899 10.22968679 3.26474248 12.52613972 -1 13 C-1 13.66 -1 14.32 -1 15 C-5.62 15.33 -10.24 15.66 -15 16 C-13.8125 11.25 -13.8125 11.25 -11 9 C-10.34 9 -9.68 9 -9 9 C-8.67 8.01 -8.34 7.02 -8 6 C-7.34 5.67 -6.68 5.34 -6 5 C-5.71125 4.34 -5.4225 3.68 -5.125 3 C-4 1 -4 1 -1.875 0.25 C-1.25625 0.1675 -0.6375 0.085 0 0 Z " fill="#2AB1FA" transform="translate(57,173)"/>
<path d="M0 0 C5.03405033 0.47194222 9.48120657 2.88335384 14 5 C14.99 4.01 15.98 3.02 17 2 C16.40236676 6.18343269 15.71426729 10.12034244 14 14 C11.0915935 15.08665737 8.3293357 15.10778435 5.25 15.0625 C4.45078125 15.05347656 3.6515625 15.04445312 2.828125 15.03515625 C2.22484375 15.02355469 1.6215625 15.01195312 1 15 C-1.39306591 5.19270308 -1.39306591 5.19270308 -1 1 C-0.67 0.67 -0.34 0.34 0 0 Z " fill="#3C9AF1" transform="translate(161,157)"/>
<path d="M0 0 C7.46636895 0.13575216 11.63453619 2.90169621 17 8 C17.99 9.485 17.99 9.485 19 11 C10.14223195 17.03938731 10.14223195 17.03938731 5.375 16.875 C4.199375 16.441875 4.199375 16.441875 3 16 C2.67 15.01 2.34 14.02 2 13 C1.01 12.34 0.02 11.68 -1 11 C-0.71125 10.46375 -0.4225 9.9275 -0.125 9.375 C1.16711808 6.64719516 2.08558592 3.87387282 3 1 C2.01 0.67 1.02 0.34 0 0 Z " fill="#70B76E" transform="translate(363,10)"/>
<path d="M0 0 C0.99 0 1.98 0 3 0 C3 0.66 3 1.32 3 2 C4.134375 2.309375 5.26875 2.61875 6.4375 2.9375 C10 4 10 4 11 5 C11.14355117 9.00220653 11.04216403 12.99441683 11 17 C7.04 17 3.08 17 -1 17 C-1.33 17.99 -1.66 18.98 -2 20 C-2.125 12.25 -2.125 12.25 -1 10 C-0.77377919 8.29636178 -0.59111527 6.58671299 -0.4375 4.875 C-0.35371094 3.96492187 -0.26992188 3.05484375 -0.18359375 2.1171875 C-0.12300781 1.41851562 -0.06242187 0.71984375 0 0 Z " fill="#E62E52" transform="translate(272,126)"/>
<path d="M0 0 C3.3 0.99 6.6 1.98 10 3 C10 3.66 10 4.32 10 5 C10.9075 5.28875 11.815 5.5775 12.75 5.875 C15.32202908 6.76531776 17.61346766 7.71494413 20 9 C19.67 10.32 19.34 11.64 19 13 C19.66 13.33 20.32 13.66 21 14 C20.01 14.495 20.01 14.495 19 15 C18.01 16.485 18.01 16.485 17 18 C13.37 16.35 9.74 14.7 6 13 C6 12.34 6 11.68 6 11 C4.68 10.67 3.36 10.34 2 10 C1.34 6.7 0.68 3.4 0 0 Z " fill="#132797" transform="translate(158,145)"/>
<path d="M0 0 C0 0.66 0 1.32 0 2 C-2.31 2 -4.62 2 -7 2 C-7.09087891 3.06541016 -7.09087891 3.06541016 -7.18359375 4.15234375 C-7.26738281 5.07144531 -7.35117188 5.99054688 -7.4375 6.9375 C-7.51871094 7.85402344 -7.59992188 8.77054688 -7.68359375 9.71484375 C-8 12 -8 12 -9 13 C-14.51778767 13.36785251 -17.38350948 13.24402036 -22 10 C-23.65369357 9.30177383 -25.31727014 8.62501395 -27 8 C-27 7.34 -27 6.68 -27 6 C-18.58115957 1.41195468 -9.53203177 0 0 0 Z " fill="#4469C2" transform="translate(118,106)"/>
<path d="M0 0 C3.40767975 10.0023981 -2.06442559 23.8220256 -6.3828125 32.91015625 C-9.09272457 38.06750199 -12.1462073 42.69844698 -15.7421875 47.2734375 C-17.27810027 49.38174012 -18.223457 51.51506242 -19 54 C-20.65 54 -22.3 54 -24 54 C-23.01 53.505 -23.01 53.505 -22 53 C-21.53476937 51.10466658 -21.53476937 51.10466658 -21.375 48.9375 C-21.189375 46.9884375 -21.189375 46.9884375 -21 45 C-19.86498047 44.89365234 -19.86498047 44.89365234 -18.70703125 44.78515625 C-15.22671542 43.775714 -14.53701606 42.4913521 -12.6875 39.4375 C-12.17574219 38.61121094 -11.66398437 37.78492188 -11.13671875 36.93359375 C-10.57404297 35.97646484 -10.57404297 35.97646484 -10 35 C-11.32 34.34 -12.64 33.68 -14 33 C-13.67 32.34 -13.34 31.68 -13 31 C-12.01 31 -11.02 31 -10 31 C-9.97421875 30.30132812 -9.9484375 29.60265625 -9.921875 28.8828125 C-9.86515625 27.97273438 -9.8084375 27.06265625 -9.75 26.125 C-9.68039062 24.76761719 -9.68039062 24.76761719 -9.609375 23.3828125 C-9 21 -9 21 -6.953125 19.6796875 C-6.30859375 19.45539063 -5.6640625 19.23109375 -5 19 C-4.67 19.99 -4.34 20.98 -4 22 C-2.42193826 13.45703601 -2.42193826 13.45703601 -2 4.8125 C-2 2 -2 2 0 0 Z " fill="#320892" transform="translate(405,75)"/>
<path d="M0 0 C1.44375 0.144375 2.8875 0.28875 4.375 0.4375 C5.59316406 0.55931641 5.59316406 0.55931641 6.8359375 0.68359375 C9 1 9 1 11 2 C11 6.62 11 11.24 11 16 C8.03 15.505 8.03 15.505 5 15 C5 14.34 5 13.68 5 13 C3.35 12.67 1.7 12.34 0 12 C0 8.04 0 4.08 0 0 Z " fill="#2040AF" transform="translate(139,123)"/>
<path d="M0 0 C5.02887378 5.02887378 7.84046704 12.80656224 8.109375 19.875 C8.07328125 20.57625 8.0371875 21.2775 8 22 C6.12212014 19.18318021 5.34856427 17.20541985 4.4375 14 C3.66559177 11.31231952 2.88451299 8.65353898 2 6 C-1.21717892 4.92760703 -2.05283612 5.06390515 -5.1875 5.9375 C-6.445625 6.288125 -7.70375 6.63875 -9 7 C-8.525625 7.94875 -8.05125 8.8975 -7.5625 9.875 C-5.57242218 14.4465467 -5.28773098 19.06888627 -5 24 C-4.34 24 -3.68 24 -3 24 C-2.67 30.27 -2.34 36.54 -2 43 C-1.34 43.33 -0.68 43.66 0 44 C-1.28965176 45.37562854 -2.62689293 46.70766393 -4 48 C-4.66 48 -5.32 48 -6 48 C-5.97905273 47.37657715 -5.95810547 46.7531543 -5.93652344 46.11083984 C-5.57092434 33.55320489 -5.7719046 22.92017257 -10 11 C-10.36415917 9.3397961 -10.70864658 7.67451547 -11 6 C-10.113125 5.566875 -9.22625 5.13375 -8.3125 4.6875 C-5.45570545 3.23215183 -2.72603137 1.68372526 0 0 Z " fill="#D4536F" transform="translate(396,40)"/>
<path d="M0 0 C-0.24168922 4.10871679 -0.57797687 6.45385242 -3.125 9.75 C-6.36568248 12.28618629 -9.16161327 13.57001279 -13 15 C-13.96070434 12.11788698 -14.10581883 10.30149956 -14.0625 7.3125 C-14.05347656 6.50425781 -14.04445313 5.69601563 -14.03515625 4.86328125 C-14.02355469 4.24839844 -14.01195312 3.63351563 -14 3 C-9.03006806 0.56574762 -5.65394631 -0.34615998 0 0 Z " fill="#271987" transform="translate(284,144)"/>
<path d="M0 0 C0.33 0 0.66 0 1 0 C1.02467467 5.65999023 1.04284788 11.31994932 1.05493164 16.97998047 C1.05996787 18.90641831 1.06679712 20.83285231 1.07543945 22.75927734 C1.08753608 25.52442368 1.09323533 28.28951958 1.09765625 31.0546875 C1.10281754 31.9193161 1.10797882 32.7839447 1.11329651 33.67477417 C1.11387171 39.77225659 1.11387171 39.77225659 0 42 C-5.06998019 41.34580901 -9.41990777 39.1453591 -14 37 C-14 35.35 -14 33.7 -14 32 C-13.34 32 -12.68 32 -12 32 C-12 33.32 -12 34.64 -12 36 C-11.195625 35.505 -11.195625 35.505 -10.375 35 C-7.4608939 33.77300796 -5.13132292 33.85766714 -2 34 C-2.495 36.475 -2.495 36.475 -3 39 C-2.34 39.33 -1.68 39.66 -1 40 C-1.0407666 38.85934082 -1.0815332 37.71868164 -1.12353516 36.54345703 C-1.27174571 32.32078115 -1.40648546 28.09776522 -1.53710938 23.87451172 C-1.59559255 22.04496291 -1.65775332 20.21552788 -1.72363281 18.38623047 C-1.81756847 15.76030185 -1.89837127 13.13425114 -1.9765625 10.5078125 C-2.00875885 9.68693146 -2.0409552 8.86605042 -2.0741272 8.02029419 C-2.12733115 6.0140827 -2.07301195 4.00558831 -2 2 C-1.34 1.34 -0.68 0.68 0 0 Z " fill="#53A7E3" transform="translate(149,167)"/>
<path d="M0 0 C0 0.33 0 0.66 0 1 C-2.31 1.33 -4.62 1.66 -7 2 C-6.67 4.97 -6.34 7.94 -6 11 C-0.67946347 10.59494877 4.64074534 10.18590228 9.96069336 9.77319336 C11.76952857 9.6334293 13.57844767 9.49474641 15.38745117 9.35717773 C17.99160342 9.15895015 20.59542661 8.95680261 23.19921875 8.75390625 C24.00461594 8.6934462 24.81001312 8.63298615 25.63981628 8.57069397 C29.50339332 8.26590701 33.20548888 7.82261081 37 7 C38.76977761 6.93540958 40.54170152 6.91388935 42.3125 6.9375 C43.63701172 6.95103516 43.63701172 6.95103516 44.98828125 6.96484375 C45.98408203 6.98224609 45.98408203 6.98224609 47 7 C47 7.33 47 7.66 47 8 C41.6668269 8.72215251 36.33238516 9.43377385 30.99658203 10.13623047 C29.18663919 10.37594734 27.37705561 10.61839497 25.56787109 10.86376953 C-2.43864843 14.65680286 -2.43864843 14.65680286 -9 10 C-11.53806697 6.58673752 -12 5.36087656 -12 1 C-7.93631321 0.22596442 -4.13574827 -0.0984702 0 0 Z " fill="#351A7C" transform="translate(339,136)"/>
<path d="M0 0 C1.4540625 0.0309375 1.4540625 0.0309375 2.9375 0.0625 C3.5975 1.3825 4.2575 2.7025 4.9375 4.0625 C4.2775 4.0625 3.6175 4.0625 2.9375 4.0625 C2.9375 4.7225 2.9375 5.3825 2.9375 6.0625 C4.9175 5.7325 6.8975 5.4025 8.9375 5.0625 C9.2675 6.3825 9.5975 7.7025 9.9375 9.0625 C8.37633181 9.40201619 6.81348662 9.73382544 5.25 10.0625 C3.94482422 10.3409375 3.94482422 10.3409375 2.61328125 10.625 C0.00037036 11.05222047 -2.42063038 11.13866201 -5.0625 11.0625 C-4.92207123 9.41619672 -4.77500671 7.77045821 -4.625 6.125 C-4.54378906 5.20847656 -4.46257812 4.29195313 -4.37890625 3.34765625 C-3.89440408 -0.1515261 -3.64350125 0.07435717 0 0 Z " fill="#1C49B4" transform="translate(116.0625,107.9375)"/>
<path d="M0 0 C0.25 6.625 0.25 6.625 -2 10 C-6.00594152 9.3837013 -8.72993881 7.29600041 -12 5 C-12.99 4.34 -13.98 3.68 -15 3 C-14.67 2.01 -14.34 1.02 -14 0 C-12.2300132 -0.19532961 -10.45895721 -0.38098882 -8.6875 -0.5625 C-7.70136719 -0.66691406 -6.71523437 -0.77132812 -5.69921875 -0.87890625 C-3 -1 -3 -1 0 0 Z " fill="#C62C65" transform="translate(133,105)"/>
<path d="M0 0 C-1.43590972 3.42062263 -3.19810023 5.23874919 -6.0625 7.5625 C-9.33584139 10.18282506 -9.33584139 10.18282506 -11 14 C-13.70879335 15.35439668 -16.00933268 15.06501451 -19 15 C-16.81288479 10.75442341 -13.94245935 7.80390119 -10.5234375 4.55078125 C-8.90086307 3.05820739 -8.90086307 3.05820739 -8 1 C-8.99 0.67 -9.98 0.34 -11 0 C-9.54263913 -0.19491452 -8.08405407 -0.38069358 -6.625 -0.5625 C-5.81289063 -0.66691406 -5.00078125 -0.77132812 -4.1640625 -0.87890625 C-2 -1 -2 -1 0 0 Z " fill="#BFB3DF" transform="translate(53,175)"/>
<path d="M0 0 C0.66 0.33 1.32 0.66 2 1 C1.34 4.3 0.68 7.6 0 11 C4.95 10.34 9.9 9.68 15 9 C14.67 8.01 14.34 7.02 14 6 C12.02 6 10.04 6 8 6 C8 2 8 2 9 0 C9.350625 0.4125 9.70125 0.825 10.0625 1.25 C12.78344094 3.70762407 15.78439652 5.24051885 19 7 C13.19278923 13.76879437 1.51100024 13.59810038 -6.8125 14.5703125 C-10.01377516 14.90089548 -10.01377516 14.90089548 -13 16 C-12.67 15.01 -12.34 14.02 -12 13 C-9.71484375 12.05078125 -9.71484375 12.05078125 -6.9375 11.3125 C-6.01839844 11.06113281 -5.09929687 10.80976562 -4.15234375 10.55078125 C-3.44207031 10.36902344 -2.73179688 10.18726562 -2 10 C-1.34 6.7 -0.68 3.4 0 0 Z " fill="#3555AA" transform="translate(111,108)"/>
<path d="M0 0 C-0.66 1.32 -1.32 2.64 -2 4 C-2.66 4 -3.32 4 -4 4 C-4.433125 4.86625 -4.433125 4.86625 -4.875 5.75 C-5.431875 6.86375 -5.431875 6.86375 -6 8 C-6.226875 8.6909375 -6.45375 9.381875 -6.6875 10.09375 C-8 12 -8 12 -10.8203125 12.609375 C-11.91085938 12.65578125 -13.00140625 12.7021875 -14.125 12.75 C-15.22070312 12.80671875 -16.31640625 12.8634375 -17.4453125 12.921875 C-18.70988281 12.96054688 -18.70988281 12.96054688 -20 13 C-16.86300675 9.65387387 -13.51225855 6.63884562 -10 3.6875 C-9.175 2.99011719 -8.35 2.29273438 -7.5 1.57421875 C-4.70357961 -0.18665221 -3.23899395 -0.34125115 0 0 Z " fill="#9CABDF" transform="translate(76,174)"/>
<path d="M0 0 C0.33 0 0.66 0 1 0 C1.21278058 4.46839215 0.59138085 7.82262526 -1 12 C-0.34 12 0.32 12 1 12 C1 11.01 1 10.02 1 9 C2.33333333 9.66666667 3.66666667 10.33333333 5 11 C5 12 5 13 5 14 C6.65 14 8.3 14 10 14 C10 12.35 10 10.7 10 9 C10.66 9.33 11.32 9.66 12 10 C11.67 11.98 11.34 13.96 11 16 C6.05 16.66 1.1 17.32 -4 18 C-5.68550367 14.62899267 -3.68863036 11.27985368 -2.5625 7.875 C-2.19801758 6.74384766 -2.19801758 6.74384766 -1.82617188 5.58984375 C-1.22404181 3.72442121 -0.61286537 1.86192317 0 0 Z " fill="#2B2E90" transform="translate(213,149)"/>
<path d="M0 0 C-0.33 12.87 -0.66 25.74 -1 39 C-1.33 39 -1.66 39 -2 39 C-2 28.44 -2 17.88 -2 7 C-3.32 6.34 -4.64 5.68 -6 5 C-6.33 5.99 -6.66 6.98 -7 8 C-7.66 8 -8.32 8 -9 8 C-9 6.02 -9 4.04 -9 2 C-3.375 -1.125 -3.375 -1.125 0 0 Z " fill="#EA546E" transform="translate(323,39)"/>
<path d="M0 0 C-0.15481795 2.70931419 -0.48172081 4.46584039 -2.40234375 6.4453125 C-3.89771708 7.67679642 -5.4462924 8.8429837 -7 10 C-7.33 9.01 -7.66 8.02 -8 7 C-8.66 7 -9.32 7 -10 7 C-10 8.32 -10 9.64 -10 11 C-10.99 10.67 -11.98 10.34 -13 10 C-12.67 8.68 -12.34 7.36 -12 6 C-12.66 5.67 -13.32 5.34 -14 5 C-13.67 4.34 -13.34 3.68 -13 3 C-12.34 3.33 -11.68 3.66 -11 4 C-10.34 3.34 -9.68 2.68 -9 2 C-10.32 1.67 -11.64 1.34 -13 1 C-8.61414671 0.29826347 -4.44209357 -0.10834375 0 0 Z " fill="#2DB3F7" transform="translate(42,177)"/>
<path d="M0 0 C1.05523357 3.19441455 0.97578115 5.0401454 -0.1875 8.1875 C-0.54908203 9.22970703 -0.54908203 9.22970703 -0.91796875 10.29296875 C-2 12 -2 12 -3.81640625 12.734375 C-6.15412936 13.01874919 -8.39532139 13.09712763 -10.75 13.0625 C-11.54921875 13.05347656 -12.3484375 13.04445312 -13.171875 13.03515625 C-13.77515625 13.02355469 -14.3784375 13.01195312 -15 13 C-14.67 12.01 -14.34 11.02 -14 10 C-14 10.66 -14 11.32 -14 12 C-13.01 12 -12.02 12 -11 12 C-11 11.34 -11 10.68 -11 10 C-10.34 10 -9.68 10 -9 10 C-8.71125 9.4225 -8.4225 8.845 -8.125 8.25 C-6.5625 5.125 -6.5625 5.125 -5 2 C-4.01 2.33 -3.02 2.66 -2 3 C-1.34 2.01 -0.68 1.02 0 0 Z " fill="#458CE1" transform="translate(177,159)"/>
<path d="M0 0 C0 0.66 0 1.32 0 2 C-3.08809695 3.76462683 -4.23312136 4 -8 4 C-8 4.66 -8 5.32 -8 6 C-11.96 7.32 -15.92 8.64 -20 10 C-20 10.66 -20 11.32 -20 12 C-21.32 12 -22.64 12 -24 12 C-24.33 13.32 -24.66 14.64 -25 16 C-25.82638376 13.10765685 -26 11.11257569 -26 8 C-24.9378125 7.67386719 -23.875625 7.34773437 -22.78125 7.01171875 C-13.88409554 4.3034967 -13.88409554 4.3034967 -5.125 1.1875 C-2 0 -2 0 0 0 Z " fill="#2F0D88" transform="translate(358,130)"/>
<path d="M0 0 C2.475 0.495 2.475 0.495 5 1 C5 1.66 5 2.32 5 3 C5.99 3.33 6.98 3.66 8 4 C7.67 6.97 7.34 9.94 7 13 C6.01 13 5.02 13 4 13 C3.67 12.67 3.34 12.34 3 12 C2.34 11.67 1.68 11.34 1 11 C-0.37097852 7.43545584 -0.07243154 3.76644005 0 0 Z " fill="#122C9C" transform="translate(139,135)"/>
<path d="M0 0 C7.875 0 7.875 0 11.9375 1 C12.70964844 1.185625 13.48179687 1.37125 14.27734375 1.5625 C14.84582031 1.706875 15.41429687 1.85125 16 2 C16.33 1.34 16.66 0.68 17 0 C16.67 5.94 16.34 11.88 16 18 C15.67 18 15.34 18 15 18 C15 13.71 15 9.42 15 5 C13.618125 4.71125 12.23625 4.4225 10.8125 4.125 C7.24591552 3.37974354 4.46958962 2.38783585 1 1 C1 9.58 1 18.16 1 27 C0.67 27 0.34 27 0 27 C0 18.09 0 9.18 0 0 Z " fill="#463885" transform="translate(189,140)"/>
<path d="M0 0 C0.99 0 1.98 0 3 0 C3 1.32 3 2.64 3 4 C3.99 4.66 4.98 5.32 6 6 C6.51171875 8.1640625 6.51171875 8.1640625 6.6875 10.625 C6.78611328 11.85089844 6.78611328 11.85089844 6.88671875 13.1015625 C6.92410156 13.72804688 6.96148437 14.35453125 7 15 C5.68 15 4.36 15 3 15 C3 14.34 3 13.68 3 13 C2.01 13 1.02 13 0 13 C0 10.36 0 7.72 0 5 C-0.66 4.67 -1.32 4.34 -2 4 C-1.34 4 -0.68 4 0 4 C0 2.68 0 1.36 0 0 Z " fill="#EA255D" transform="translate(158,114)"/>
<path d="M0 0 C0 3.3 0 6.6 0 10 C-1 8 -2 6 -3 4 C-4.32 9.28 -5.64 14.56 -7 20 C-7.33 20 -7.66 20 -8 20 C-8.23226327 18.00917197 -8.46437259 16.01832572 -8.6953125 14.02734375 C-8.93883106 11.93570369 -8.93883106 11.93570369 -9.8125 9.8125 C-10 8 -10 8 -8.375 5.4375 C-3.07692308 0 -3.07692308 0 0 0 Z " fill="#DE345E" transform="translate(241,108)"/>
<path d="M0 0 C-1.65296434 4.09305456 -3.13546142 7.58983503 -6 11 C-9.0916909 8.47043472 -9.90931332 5.77545388 -11 2 C-7.36576791 -0.32590854 -4.22911669 -0.16265833 0 0 Z " fill="#8BA4DD" transform="translate(26,178)"/>
<path d="M0 0 C9 1 9 1 11 3 C7.7 3 4.4 3 1 3 C1 17.52 1 32.04 1 47 C0.67 47 0.34 47 0 47 C0 31.49 0 15.98 0 0 Z " fill="#4E9CE2" transform="translate(136,149)"/>
<path d="M0 0 C0.66 0.33 1.32 0.66 2 1 C3.32860925 1.35169068 4.66158328 1.68770276 6 2 C6.5534764 4.07553648 7 5.84365964 7 8 C5.02 8.33 3.04 8.66 1 9 C1.66 9.66 2.32 10.32 3 11 C1.35 11.33 -0.3 11.66 -2 12 C-2 8.37 -2 4.74 -2 1 C-1.34 0.67 -0.68 0.34 0 0 Z " fill="#282628" transform="translate(309,161)"/>
<path d="M0 0 C4.95 0.99 4.95 0.99 10 2 C9 6 9 6 6.6875 7.875 C4 9 4 9 1.6875 8.1875 C1.130625 7.795625 0.57375 7.40375 0 7 C0 4.69 0 2.38 0 0 Z " fill="#F79A12" transform="translate(136,220)"/>
<path d="M0 0 C5.02887378 5.02887378 7.84046704 12.80656224 8.109375 19.875 C8.07328125 20.57625 8.0371875 21.2775 8 22 C6.12212014 19.18318021 5.34856427 17.20541985 4.4375 14 C3.66559177 11.31231952 2.88451299 8.65353898 2 6 C-1.14825641 4.9505812 -1.98701503 5.01344876 -5.0625 5.8125 C-6.10083984 6.06966797 -6.10083984 6.06966797 -7.16015625 6.33203125 C-9.21242966 6.93019704 -9.21242966 6.93019704 -11 9 C-10.875 7.125 -10.875 7.125 -10 5 C-7.1875 3.9375 -7.1875 3.9375 -4 3 C-1.69833325 1.48446847 -1.69833325 1.48446847 0 0 Z " fill="#E45F6E" transform="translate(396,40)"/>
<path d="M0 0 C0.75 1.6875 0.75 1.6875 1 4 C-1.72057563 8.64765003 -4.93245251 10.39972185 -10 12 C-12.9375 11.6875 -12.9375 11.6875 -15 11 C-14.34 10.67 -13.68 10.34 -13 10 C-13 8.02 -13 6.04 -13 4 C-9.9168649 5.19899698 -6.93720508 6.47700477 -4 8 C-3.87625 7.360625 -3.7525 6.72125 -3.625 6.0625 C-3.41875 5.381875 -3.2125 4.70125 -3 4 C-2.34 3.67 -1.68 3.34 -1 3 C-0.67 2.01 -0.34 1.02 0 0 Z " fill="#141C92" transform="translate(203,157)"/>
<path d="M0 0 C2.97 0.495 2.97 0.495 6 1 C1.26401709 6.47598023 -4.00010183 8.50100413 -11 10 C-13.33300933 10.03888349 -15.66709801 10.0448635 -18 10 C-13.22894198 7.32820751 -8.46088946 6 -3 6 C-2.67 4.68 -2.34 3.36 -2 2 C-1.34 2 -0.68 2 0 2 C0 1.34 0 0.68 0 0 Z " fill="#3DA4EE" transform="translate(113,172)"/>
<path d="M0 0 C6.98029225 0.58169102 12.64240235 2.46558252 17.5 7.6875 C19 10 19 10 19 11 C15.74931846 10.88985294 12.49976672 10.75928788 9.25 10.625 C8.32960938 10.5940625 7.40921875 10.563125 6.4609375 10.53125 C5.12675781 10.47324219 5.12675781 10.47324219 3.765625 10.4140625 C2.94868164 10.3826416 2.13173828 10.3512207 1.29003906 10.31884766 C-1 10 -1 10 -5 8 C1.93 8.33 8.86 8.66 16 9 C15.01 8.34 14.02 7.68 13 7 C13 6.34 13 5.68 13 5 C12.31292969 4.89042969 11.62585938 4.78085938 10.91796875 4.66796875 C10.01691406 4.50941406 9.11585937 4.35085937 8.1875 4.1875 C7.29417969 4.03667969 6.40085937 3.88585937 5.48046875 3.73046875 C2.81678744 2.94604607 1.74309678 2.11372201 0 0 Z " fill="#2253A6" transform="translate(107,136)"/>
<path d="M0 0 C6.93 0.495 6.93 0.495 14 1 C14 1.66 14 2.32 14 3 C13.34 3 12.68 3 12 3 C12 4.32 12 5.64 12 7 C7.02125936 6.52583422 3.93281242 5.0900669 0 2 C0 1.34 0 0.68 0 0 Z " fill="#47AEF2" transform="translate(84,144)"/>
<path d="M0 0 C1.96482034 2.94723051 2.7561217 5.11977826 3.6875 8.5 C3.95949219 9.4590625 4.23148438 10.418125 4.51171875 11.40625 C5 14 5 14 4 17 C1.69 16.01 -0.62 15.02 -3 14 C-3 12.35 -3 10.7 -3 9 C-2.34 9 -1.68 9 -1 9 C-0.67 6.03 -0.34 3.06 0 0 Z " fill="#F24068" transform="translate(251,101)"/>
<path d="M0 0 C2.31 0.33 4.62 0.66 7 1 C7.66 1.99 8.32 2.98 9 4 C6.69 3.67 4.38 3.34 2 3 C2.01160156 3.71542969 2.02320313 4.43085937 2.03515625 5.16796875 C2.10453129 12.82895572 1.68902721 20.37148446 1 28 C0.67 28 0.34 28 0 28 C0 18.76 0 9.52 0 0 Z " fill="#383C91" transform="translate(137,120)"/>
<path d="M0 0 C0 0.66 0 1.32 0 2 C-3.3 2.33 -6.6 2.66 -10 3 C-10.33 3.99 -10.66 4.98 -11 6 C-15.62 6 -20.24 6 -25 6 C-20.49782744 2.62337058 -20.49782744 2.62337058 -17.03125 2.05078125 C-16.29519531 1.92509766 -15.55914062 1.79941406 -14.80078125 1.66992188 C-14.04152344 1.55197266 -13.28226563 1.43402344 -12.5 1.3125 C-11.74074219 1.18294922 -10.98148438 1.05339844 -10.19921875 0.91992188 C-6.70174393 0.34109285 -3.5708872 0 0 0 Z " fill="#526BB1" transform="translate(118,106)"/>
<path d="M0 0 C0 0.99 0 1.98 0 3 C-0.93972656 3.38091797 -0.93972656 3.38091797 -1.8984375 3.76953125 C-2.71570313 4.11371094 -3.53296875 4.45789063 -4.375 4.8125 C-5.18710937 5.14894531 -5.99921875 5.48539063 -6.8359375 5.83203125 C-9.30147458 6.94439082 -9.30147458 6.94439082 -11 10 C-11.99 10.33 -12.98 10.66 -14 11 C-15.71567661 14.50294871 -15.71567661 14.50294871 -17 18 C-18.4606285 15.35261084 -19 14.10551666 -19 11 C-13.48251459 6.03541501 -6.871569 2.67227683 0 0 Z " fill="#93D292" transform="translate(302,4)"/>
<path d="M0 0 C0.77755135 3.1102054 1.18633054 5.42677917 1.25 8.5625 C1.27578125 9.32691406 1.3015625 10.09132812 1.328125 10.87890625 C0.92308006 13.49723244 0.00903813 14.34518701 -2 16 C-0.02 16.33 1.96 16.66 4 17 C4 17.33 4 17.66 4 18 C0.7 18 -2.6 18 -6 18 C-4.02 12.06 -2.04 6.12 0 0 Z " fill="#D6335E" transform="translate(220,128)"/>
<path d="M0 0 C3.79303725 1.00193437 6.71536341 1.81024227 10 4 C8.824375 4.37125 8.824375 4.37125 7.625 4.75 C4.94746661 5.76787747 4.94746661 5.76787747 3.6875 7.8125 C2.7501445 10.41282942 2.7501445 10.41282942 3 15 C7.95 16.98 7.95 16.98 13 19 C13 19.33 13 19.66 13 20 C4.45454545 18.84965035 4.45454545 18.84965035 2 18 C0.41506916 14.83013832 0.7059958 11.45967739 1 8 C2 5.5 2 5.5 3 4 C2.01 3.67 1.02 3.34 0 3 C0 2.01 0 1.02 0 0 Z " fill="#284E9C" transform="translate(94,116)"/>
<path d="M0 0 C2.97 0.33 5.94 0.66 9 1 C9.33 1.99 9.66 2.98 10 4 C6.78688525 9.73770492 6.78688525 9.73770492 3 11 C3 9.02 3 7.04 3 5 C3.66 5 4.32 5 5 5 C4.01 4.01 3.02 3.02 2 2 C1.67 2.66 1.34 3.32 1 4 C0.67 2.68 0.34 1.36 0 0 Z " fill="#449EFC" transform="translate(162,159)"/>
<path d="M0 0 C0.33 0 0.66 0 1 0 C1 6.93 1 13.86 1 21 C2.65 21.33 4.3 21.66 6 22 C6 22.33 6 22.66 6 23 C4.0085944 23.38133299 2.00720923 23.71325582 0 24 C-1.65394117 22.34605883 -1.12999683 20.39684587 -1.1328125 18.125 C-1.13410156 17.14015625 -1.13539063 16.1553125 -1.13671875 15.140625 C-1.13285156 14.10421875 -1.12898437 13.0678125 -1.125 12 C-1.13080078 10.44539062 -1.13080078 10.44539062 -1.13671875 8.859375 C-1.13542969 7.87453125 -1.13414062 6.8896875 -1.1328125 5.875 C-1.13168457 4.96492187 -1.13055664 4.05484375 -1.12939453 3.1171875 C-1 1 -1 1 0 0 Z " fill="#393939" transform="translate(248,188)"/>
<path d="M0 0 C0.66 0.33 1.32 0.66 2 1 C2 2.65 2 4.3 2 6 C2.99 6 3.98 6 5 6 C5 6.66 5 7.32 5 8 C7.41645782 8.16687448 7.41645782 8.16687448 10 8 C10.66 7.34 11.32 6.68 12 6 C12.33 7.65 12.66 9.3 13 11 C6.81839396 10.46246904 1.673142 8.45417612 -4 6 C-4 4.35 -4 2.7 -4 1 C-2.35 1.99 -0.7 2.98 1 4 C0.67 2.68 0.34 1.36 0 0 Z " fill="#B8306B" transform="translate(156,121)"/>
<path d="M0 0 C1.32 0.33 2.64 0.66 4 1 C3.34 1 2.68 1 2 1 C1.7525 1.61875 1.505 2.2375 1.25 2.875 C-0.20628639 5.35068687 -1.37812506 5.95125002 -4 7 C-4 7.66 -4 8.32 -4 9 C-5.29233607 10.37310707 -6.62437146 11.71034824 -8 13 C-4.37 13 -0.74 13 3 13 C3 13.33 3 13.66 3 14 C-1.62 14.33 -6.24 14.66 -11 15 C-9.8125 10.25 -9.8125 10.25 -7 8 C-6.34 8 -5.68 8 -5 8 C-4.67 7.01 -4.34 6.02 -4 5 C-3.34 4.67 -2.68 4.34 -2 4 C-0.86649466 1.98330173 -0.86649466 1.98330173 0 0 Z " fill="#54AFE1" transform="translate(53,174)"/>
<path d="M0 0 C2.04442328 3.54366701 2.26700438 5.60202629 3 10 C-2.94 9.67 -8.88 9.34 -15 9 C-15 8.34 -15 7.68 -15 7 C-14.01 7 -13.02 7 -12 7 C-11.67 6.34 -11.34 5.68 -11 5 C-11 5.66 -11 6.32 -11 7 C-7.04 7 -3.08 7 1 7 C1 6.34 1 5.68 1 5 C0.34 5 -0.32 5 -1 5 C-1.33 3.68 -1.66 2.36 -2 1 C-1.34 0.67 -0.68 0.34 0 0 Z " fill="#B83169" transform="translate(262,139)"/>
<path d="M0 0 C0.845625 0.598125 1.69125 1.19625 2.5625 1.8125 C5.88399232 4.0400402 9.29204553 5.51681821 13 7 C11.02 9.97 11.02 9.97 9 13 C8.87625 12.1028125 8.87625 12.1028125 8.75 11.1875 C7.76395621 8.31153894 6.57305577 7.57242297 4 6 C2.35202764 5.28837557 0.68834592 4.60968047 -1 4 C-1.66 5.32 -2.32 6.64 -3 8 C-3.66 7.67 -4.32 7.34 -5 7 C-3.35 4.69 -1.7 2.38 0 0 Z " fill="#D95968" transform="translate(269,29)"/>
<path d="M0 0 C3.16845382 9.30020977 -1.70468942 21.2658273 -5 30 C-6.35295726 26.26583796 -5.61768322 23.65448199 -4.625 19.875 C-3.3840229 14.88863049 -2.58961127 10.14987834 -2.30859375 5.0234375 C-2 3 -2 3 0 0 Z " fill="#41258B" transform="translate(405,75)"/>
<path d="M0 0 C0 3.69418201 -1.28179295 5.77836178 -3 9 C-3.99 9 -4.98 9 -6 9 C-6.20496094 9.62648438 -6.40992188 10.25296875 -6.62109375 10.8984375 C-6.89050781 11.71570313 -7.15992188 12.53296875 -7.4375 13.375 C-7.70433594 14.18710938 -7.97117187 14.99921875 -8.24609375 15.8359375 C-9 18 -9 18 -10 20 C-10.66 20 -11.32 20 -12 20 C-10.75917426 11.44258114 -8.72914358 6.71569162 -1.86328125 1.328125 C-1.24839844 0.88984375 -0.63351562 0.4515625 0 0 Z " fill="#431586" transform="translate(398,81)"/>
<path d="M0 0 C2.97 0.495 2.97 0.495 6 1 C5.91284983 2.93833996 5.80467036 4.8757429 5.6875 6.8125 C5.62949219 7.89144531 5.57148438 8.97039062 5.51171875 10.08203125 C4.96931493 13.17497517 4.44710376 14.13022903 2 16 C2 15.34 2 14.68 2 14 C-0.31 13.67 -2.62 13.34 -5 13 C-5 12.67 -5 12.34 -5 12 C-3.02 12 -1.04 12 1 12 C1.99 9.03 2.98 6.06 4 3 C2.68 2.67 1.36 2.34 0 2 C0 1.34 0 0.68 0 0 Z " fill="#F8D32C" transform="translate(144,208)"/>
<path d="M0 0 C0.66 0 1.32 0 2 0 C2 1.32 2 2.64 2 4 C2.53625 3.67 3.0725 3.34 3.625 3 C6.5391061 1.77300796 8.86867708 1.85766714 12 2 C11.67 3.65 11.34 5.3 11 7 C3.57142857 7.28571429 3.57142857 7.28571429 0 5 C0 3.35 0 1.7 0 0 Z " fill="#3CA1FA" transform="translate(135,199)"/>
<path d="M0 0 C2.79192205 -0.05380578 5.5828141 -0.09357669 8.375 -0.125 C9.1690625 -0.14175781 9.963125 -0.15851563 10.78125 -0.17578125 C12.85492015 -0.19335473 14.92883241 -0.10335168 17 0 C19.3129482 2.3129482 19.49580975 3.47904875 20.125 6.625 C20.29257812 7.44226563 20.46015625 8.25953125 20.6328125 9.1015625 C20.75398438 9.72804687 20.87515625 10.35453125 21 11 C19.68 10.67 18.36 10.34 17 10 C17.33 9.01 17.66 8.02 18 7 C17.01 6.67 16.02 6.34 15 6 C15.33 4.35 15.66 2.7 16 1 C10.72 1 5.44 1 0 1 C0 0.67 0 0.34 0 0 Z " fill="#2C1785" transform="translate(247,148)"/>
<path d="M0 0 C0.99 0 1.98 0 3 0 C3.02940458 3.16664666 3.04693315 6.33325747 3.0625 9.5 C3.07087891 10.386875 3.07925781 11.27375 3.08789062 12.1875 C3.10763596 17.55823086 2.78835893 22.68633663 2 28 C1.01 27.67 0.02 27.34 -1 27 C-0.67 26.67 -0.34 26.34 0 26 C0.07226502 24.14712498 0.0838122 22.29166122 0.0625 20.4375 C0.05347656 19.42558594 0.04445312 18.41367188 0.03515625 17.37109375 C0.02355469 16.58863281 0.01195312 15.80617187 0 15 C0.66 15 1.32 15 2 15 C2 10.38 2 5.76 2 1 C1.34 0.67 0.68 0.34 0 0 Z " fill="#2A348E" transform="translate(148,124)"/>
<path d="M0 0 C-0.66 1.32 -1.32 2.64 -2 4 C-2.33 3.01 -2.66 2.02 -3 1 C-4.46184058 1.22860058 -5.91955419 1.48370392 -7.375 1.75 C-8.18710937 1.88921875 -8.99921875 2.0284375 -9.8359375 2.171875 C-12.17709092 2.81749261 -12.17709092 2.81749261 -13.2890625 5.078125 C-13.52367187 5.71234375 -13.75828125 6.3465625 -14 7 C-14.66 6.34 -15.32 5.68 -16 5 C-18.12364481 4.77390663 -18.12364481 4.77390663 -19.625 6.5 C-20.07875 6.995 -20.5325 7.49 -21 8 C-20.5625 5.125 -20.5625 5.125 -19 2 C-13.2208076 -0.73152201 -6.23830246 -0.23442473 0 0 Z " fill="#31B2ED" transform="translate(45,176)"/>
<path d="M0 0 C0 1.32 0 2.64 0 4 C-1.27875 3.95875 -2.5575 3.9175 -3.875 3.875 C-6.01871492 3.75787127 -6.01871492 3.75787127 -8 4 C-8.66 4.66 -9.32 5.32 -10 6 C-11.32 6 -12.64 6 -14 6 C-13.875 4.125 -13.875 4.125 -13 2 C-8.64899976 -0.07190488 -4.76376184 -0.19055047 0 0 Z " fill="#4E1587" transform="translate(284,144)"/>
<path d="M0 0 C5.445 1.485 5.445 1.485 11 3 C9.25 12.625 9.25 12.625 7 16 C5.9742741 11.58937864 5.96315288 9.07369424 8 5 C5.36 4.34 2.72 3.68 0 3 C0 2.01 0 1.02 0 0 Z " fill="#3C2D8A" transform="translate(173,134)"/>
<path d="M0 0 C0.66 0.33 1.32 0.66 2 1 C2 1.99 2 2.98 2 4 C0.824375 4.12375 0.824375 4.12375 -0.375 4.25 C-3.14749104 4.72806339 -3.14749104 4.72806339 -4.3125 7.0625 C-4.539375 7.701875 -4.76625 8.34125 -5 9 C-6.65 8.67 -8.3 8.34 -10 8 C-9.9375 6.1875 -9.9375 6.1875 -9 4 C-5.5625 2.3125 -5.5625 2.3125 -2 1 C-1.34 0.67 -0.68 0.34 0 0 Z " fill="#292929" transform="translate(269,210)"/>
<path d="M0 0 C1.4540625 0.0309375 1.4540625 0.0309375 2.9375 0.0625 C2.6075 1.7125 2.2775 3.3625 1.9375 5.0625 C-0.0425 4.4025 -2.0225 3.7425 -4.0625 3.0625 C-3.7325 4.7125 -3.4025 6.3625 -3.0625 8.0625 C-4.9375 7.8125 -4.9375 7.8125 -7.0625 7.0625 C-8.3125 5 -8.3125 5 -9.0625 3.0625 C-8.258125 2.753125 -7.45375 2.44375 -6.625 2.125 C-1.57765152 0.03219697 -1.57765152 0.03219697 0 0 Z " fill="#2812A3" transform="translate(279.0625,146.9375)"/>
<path d="M0 0 C0.66 0.99 1.32 1.98 2 3 C1.50628906 3.30292969 1.01257813 3.60585937 0.50390625 3.91796875 C-3.69897215 6.548514 -3.69897215 6.548514 -5.9375 10.8125 C-5.958125 11.534375 -5.97875 12.25625 -6 13 C-8.64 13.33 -11.28 13.66 -14 14 C-9.33333333 9.33333333 -4.66666667 4.66666667 0 0 Z " fill="#2F1080" transform="translate(379,112)"/>
<path d="M0 0 C1.03115279 3.26913624 0.9638984 5.86041348 0.5625 9.25 C0.46066406 10.14203125 0.35882813 11.0340625 0.25390625 11.953125 C0.17011719 12.62859375 0.08632812 13.3040625 0 14 C1.98 14 3.96 14 6 14 C6.33 13.01 6.66 12.02 7 11 C9 14 9 14 9 17 C9.99 17.66 10.98 18.32 12 19 C8.62537285 18.45276317 6.91765 17.9451 4 16 C2.34450469 15.61500109 0.6777567 15.27206865 -1 15 C-1.02685412 12.68756208 -1.04632841 10.3750373 -1.0625 8.0625 C-1.07410156 6.77472656 -1.08570313 5.48695312 -1.09765625 4.16015625 C-1 1 -1 1 0 0 Z " fill="#C13062" transform="translate(138,105)"/>
<path d="M0 0 C0.99 0.33 1.98 0.66 3 1 C5.19074523 7.5722357 3.8925358 13.8578252 1 20 C-0.60546875 21.765625 -0.60546875 21.765625 -2 23 C-2.33 21.02 -2.66 19.04 -3 17 C-2.01 16.67 -1.02 16.34 0 16 C2.67340254 10.38585466 1.91807782 5.75423347 0 0 Z " fill="#4998DC" transform="translate(124,147)"/>
<path d="M0 0 C3.1921126 0.79802815 5.98155093 1.74231289 9 3 C6.13822943 4.43088528 4.06624227 3.59991697 1 3 C1.13854088 6.29201643 1.28707024 9.58350709 1.4375 12.875 C1.47681641 13.81214844 1.51613281 14.74929687 1.55664062 15.71484375 C1.59853516 16.61074219 1.64042969 17.50664062 1.68359375 18.4296875 C1.73858032 19.67081299 1.73858032 19.67081299 1.79467773 20.93701172 C1.88238327 23.06179429 1.88238327 23.06179429 3 25 C2.01 24.67 1.02 24.34 0 24 C0 16.08 0 8.16 0 0 Z " fill="#EBBE65" transform="translate(135,204)"/>
<path d="M0 0 C-0.33 1.65 -0.66 3.3 -1 5 C-3.31 5 -5.62 5 -8 5 C-8.33 3.68 -8.66 2.36 -9 1 C-5.64919071 -1.10976881 -3.77897651 -1.0497157 0 0 Z " fill="#E42857" transform="translate(184,130)"/>
<path d="M0 0 C2.95857409 -0.05379226 5.91617721 -0.09357093 8.875 -0.125 C9.71675781 -0.14175781 10.55851563 -0.15851563 11.42578125 -0.17578125 C12.23144531 -0.18222656 13.03710938 -0.18867188 13.8671875 -0.1953125 C14.98262939 -0.21102295 14.98262939 -0.21102295 16.12060547 -0.22705078 C18 0 18 0 20 2 C17.79317093 2.22370596 15.58440027 2.42830391 13.375 2.625 C11.53035156 2.79902344 11.53035156 2.79902344 9.6484375 2.9765625 C5.94681886 3.00034163 3.40982003 2.37441976 0 1 C0 0.67 0 0.34 0 0 Z " fill="#D03461" transform="translate(225,146)"/>
<path d="M0 0 C1.65 0.33 3.3 0.66 5 1 C5 1.66 5 2.32 5 3 C6.32 3.66 7.64 4.32 9 5 C5.64667665 6.67666168 1.98935125 5.53482999 -1.625 5.0625 C-2.42679687 4.96259766 -3.22859375 4.86269531 -4.0546875 4.75976562 C-6.03714691 4.5119582 -8.01867009 4.25668193 -10 4 C-10 3.67 -10 3.34 -10 3 C-9.06027344 3.01740234 -9.06027344 3.01740234 -8.1015625 3.03515625 C-6.87566406 3.04869141 -6.87566406 3.04869141 -5.625 3.0625 C-4.40683594 3.07990234 -4.40683594 3.07990234 -3.1640625 3.09765625 C-0.95062858 3.14466334 -0.95062858 3.14466334 1 2 C0.67 1.34 0.34 0.68 0 0 Z " fill="#082F98" transform="translate(115,140)"/>
<path d="M0 0 C1.48828125 1.05078125 1.48828125 1.05078125 3 3 C3.29296875 6.35546875 3.29296875 6.35546875 3.1875 10.1875 C3.16042969 11.45980469 3.13335937 12.73210937 3.10546875 14.04296875 C3.07066406 15.01878906 3.03585938 15.99460938 3 17 C1.68 16.67 0.36 16.34 -1 16 C-0.01 16 0.98 16 2 16 C1.77183594 15.26394531 1.54367188 14.52789062 1.30859375 13.76953125 C1.02113281 12.79371094 0.73367187 11.81789062 0.4375 10.8125 C0.14746094 9.84957031 -0.14257812 8.88664062 -0.44140625 7.89453125 C-1.02461026 4.87247412 -0.81178385 2.94070045 0 0 Z " fill="#D13C61" transform="translate(242,118)"/>
<path d="M0 0 C3.61618656 6.88290971 4.31846735 13.35678363 4 21 C0.2237411 17.23386512 0.4584214 13.27803445 0.3125 8.25 C0.26125977 7.06083984 0.26125977 7.06083984 0.20898438 5.84765625 C0.12680896 3.89892496 0.06171955 1.94948638 0 0 Z " fill="#D53863" transform="translate(163,110)"/>
<path d="M0 0 C0.66 0 1.32 0 2 0 C1.67 1.32 1.34 2.64 1 4 C1.5775 3.690625 2.155 3.38125 2.75 3.0625 C4.84294184 2.07416636 6.74535275 1.4831387 9 1 C8.67 2.65 8.34 4.3 8 6 C4.7 6 1.4 6 -2 6 C-1.34 4.02 -0.68 2.04 0 0 Z " fill="#353535" transform="translate(279,180)"/>
<path d="M0 0 C0.99 0.33 1.98 0.66 3 1 C-0.61863799 3.33438939 -4.09504639 4.86062995 -8.1875 6.1875 C-9.23292969 6.53167969 -10.27835937 6.87585938 -11.35546875 7.23046875 C-14 8 -14 8 -16 8 C-16.33 7.01 -16.66 6.02 -17 5 C-16.195625 4.896875 -15.39125 4.79375 -14.5625 4.6875 C-9.55850003 3.72181579 -4.57280127 2.28640063 0 0 Z " fill="#CA467E" transform="translate(314,132)"/>
<path d="M0 0 C0.78375 0.04125 1.5675 0.0825 2.375 0.125 C1.715 1.445 1.055 2.765 0.375 4.125 C-0.285 4.125 -0.945 4.125 -1.625 4.125 C-2.285 5.445 -2.945 6.765 -3.625 8.125 C-4.615 7.795 -5.605 7.465 -6.625 7.125 C-4.07142857 0.19387755 -4.07142857 0.19387755 0 0 Z " fill="#BEAFDD" transform="translate(73.625,173.875)"/>
<path d="M0 0 C0.33 0 0.66 0 1 0 C1 4.62 1 9.24 1 14 C-7.5 16 -7.5 16 -12 16 C-12 15.01 -12 14.02 -12 13 C-8.04 13 -4.08 13 0 13 C0 8.71 0 4.42 0 0 Z " fill="#CA3B69" transform="translate(283,130)"/>
<path d="M0 0 C0.99 0 1.98 0 3 0 C3.33 1.65 3.66 3.3 4 5 C3.34 5 2.68 5 2 5 C2 5.66 2 6.32 2 7 C1.34 7 0.68 7 0 7 C-0.33 8.98 -0.66 10.96 -1 13 C-1.66 13 -2.32 13 -3 13 C-2.01 8.71 -1.02 4.42 0 0 Z " fill="#CE3861" transform="translate(182,99)"/>
<path d="M0 0 C4.23322844 0.62045463 7.52290295 2.10523559 11.3125 4.0625 C12.38113281 4.61035156 13.44976562 5.15820312 14.55078125 5.72265625 C15.35902344 6.14417969 16.16726563 6.56570312 17 7 C14.09660535 8.45169732 12.09125158 7.72348441 9 7 C8.67 6.34 8.34 5.68 8 5 C6.11736119 4.09656316 6.11736119 4.09656316 3.9375 3.375 C3.20402344 3.11460938 2.47054688 2.85421875 1.71484375 2.5859375 C1.14894531 2.39257812 0.58304687 2.19921875 0 2 C0 1.34 0 0.68 0 0 Z " fill="#7EB57D" transform="translate(352,3)"/>
<path d="M0 0 C0.66 0.33 1.32 0.66 2 1 C1.39298665 4.39927478 0.5435528 6.61794262 -2 9 C-4.89480289 9.13117541 -7.34153404 9.06318053 -10.1875 8.75 C-11.31188477 8.65138672 -11.31188477 8.65138672 -12.45898438 8.55078125 C-14.30775601 8.38592263 -16.15420773 8.19541184 -18 8 C-18 7.67 -18 7.34 -18 7 C-16.95199219 6.99742187 -15.90398437 6.99484375 -14.82421875 6.9921875 C-13.44526973 6.95466508 -12.06636426 6.91551759 -10.6875 6.875 C-9.65206055 6.87886719 -9.65206055 6.87886719 -8.59570312 6.8828125 C-6.29299308 6.85516124 -6.29299308 6.85516124 -3 6 C-0.9354148 3.08281432 -0.9354148 3.08281432 0 0 Z " fill="#1843A4" transform="translate(101,135)"/>
<path d="M0 0 C0.66 0.33 1.32 0.66 2 1 C1.01 2.32 0.02 3.64 -1 5 C-0.01 5 0.98 5 2 5 C0.35 6.98 -1.3 8.96 -3 11 C-5 10 -5 10 -6 7 C-4.78515625 5.17578125 -4.78515625 5.17578125 -3.0625 3.3125 C-2.49660156 2.68988281 -1.93070312 2.06726563 -1.34765625 1.42578125 C-0.90292969 0.95527344 -0.45820312 0.48476562 0 0 Z " fill="#3058A4" transform="translate(89,113)"/>
<path d="M0 0 C3.63 2.31 7.26 4.62 11 7 C7.91330796 10.08669204 7.08072342 10.44855089 3 11 C4.32 10.34 5.64 9.68 7 9 C6.67 8.01 6.34 7.02 6 6 C4.02 6 2.04 6 0 6 C0 4 0 2 0 0 Z " fill="#39429D" transform="translate(119,108)"/>
<path d="M0 0 C0.66 0 1.32 0 2 0 C2.33 1.32 2.66 2.64 3 4 C2.18015625 4.26554687 1.3603125 4.53109375 0.515625 4.8046875 C-1.10085938 5.33449219 -1.10085938 5.33449219 -2.75 5.875 C-3.81734375 6.22304688 -4.8846875 6.57109375 -5.984375 6.9296875 C-8.45549261 7.8067422 -10.6973692 8.75926205 -13 10 C-11.93813626 6.57843906 -10.93942552 5.96799839 -7.6875 4.25 C-4.44511292 3.15088574 -2.35841908 2.69468917 1 3 C0.67 2.01 0.34 1.02 0 0 Z " fill="#8AC88B" transform="translate(312,12)"/>
<path d="M0 0 C0 3.3 0 6.6 0 10 C-1 8 -2 6 -3 4 C-3.99 7.465 -3.99 7.465 -5 11 C-5.33 11 -5.66 11 -6 11 C-6.25 4.375 -6.25 4.375 -4 1 C-1 0 -1 0 0 0 Z " fill="#D23B5E" transform="translate(241,108)"/>
<path d="M0 0 C1.81081146 1.64619224 2.90317801 2.72216298 3.71875 5.0625 C4.88685483 7.31936411 4.88685483 7.31936411 7.8203125 7.609375 C8.91085937 7.65578125 10.00140625 7.7021875 11.125 7.75 C12.76855469 7.83507812 12.76855469 7.83507812 14.4453125 7.921875 C15.28835938 7.94765625 16.13140625 7.9734375 17 8 C17 8.33 17 8.66 17 9 C10.565 9.495 10.565 9.495 4 10 C0 2.25 0 2.25 0 0 Z " fill="#37267E" transform="translate(301,144)"/>
<path d="M0 0 C-0.33 0.763125 -0.66 1.52625 -1 2.3125 C-2.17436686 4.99069135 -2.17436686 4.99069135 -2 8 C-1.01 7.67 -0.02 7.34 1 7 C0.34 8.32 -0.32 9.64 -1 11 C-4.0916909 8.47043472 -4.90931332 5.77545388 -6 2 C-2.25 0 -2.25 0 0 0 Z " fill="#6AABD6" transform="translate(21,178)"/>
<path d="M0 0 C0.66 0.66 1.32 1.32 2 2 C1.26394531 2.06058594 0.52789062 2.12117187 -0.23046875 2.18359375 C-1.20628906 2.26738281 -2.18210937 2.35117188 -3.1875 2.4375 C-4.15042969 2.51871094 -5.11335938 2.59992188 -6.10546875 2.68359375 C-8.78649602 2.97666151 -11.3662986 3.42703754 -14 4 C-14 3.34 -14 2.68 -14 2 C-9.52621297 -0.30905137 -4.94517384 -0.66065191 0 0 Z " fill="#3D3D3D" transform="translate(297,174)"/>
<path d="M0 0 C0 6.6 0 13.2 0 20 C-0.33 20 -0.66 20 -1 20 C-1 14.39 -1 8.78 -1 3 C-2.65 3 -4.3 3 -6 3 C-3.375 0 -3.375 0 0 0 Z " fill="#461B7F" transform="translate(320,132)"/>
<path d="M0 0 C0.66 0.99 1.32 1.98 2 3 C-1.70198544 5.50428427 -4.62141858 6.31888733 -9 7 C-9.66 7.66 -10.32 8.32 -11 9 C-10.875 7.125 -10.875 7.125 -10 5 C-7.1875 3.9375 -7.1875 3.9375 -4 3 C-1.69833325 1.48446847 -1.69833325 1.48446847 0 0 Z " fill="#F57F84" transform="translate(396,40)"/>
<path d="M0 0 C1.32 0 2.64 0 4 0 C4.33 0.99 4.66 1.98 5 3 C4.34 3.66 3.68 4.32 3 5 C2.30251417 6.31747324 1.63040043 7.64914193 1 9 C-0.32 8.67 -1.64 8.34 -3 8 C-2.34 8 -1.68 8 -1 8 C-0.67 5.36 -0.34 2.72 0 0 Z " fill="#2C0C7E" transform="translate(384,120)"/>
<path d="M0 0 C0.66 0.33 1.32 0.66 2 1 C1.39174965 5.34464536 0.73832608 9.67551867 0 14 C-0.33 14 -0.66 14 -1 14 C-1 11.03 -1 8.06 -1 5 C-1.66 5 -2.32 5 -3 5 C-2.625 3.0625 -2.625 3.0625 -2 1 C-1.34 0.67 -0.68 0.34 0 0 Z " fill="#EC4B6F" transform="translate(269,54)"/>
<path d="M0 0 C-3.20093937 3.20093937 -7.66157218 3.85960658 -12.08203125 4.125 C-13.7218836 4.125 -15.36156928 4.06826795 -17 4 C-11.59275489 0.97194274 -6.17766384 -0.30134946 0 0 Z " fill="#48A4E2" transform="translate(112,178)"/>
<path d="M0 0 C2.62386487 3.06117568 3 3.73173127 3 8 C3.66 8.33 4.32 8.66 5 9 C4.34 10.32 3.68 11.64 3 13 C1.35 9.04 -0.3 5.08 -2 1 C-1.34 0.67 -0.68 0.34 0 0 Z " fill="#E64969" transform="translate(287,108)"/>
<path d="M0 0 C-0.33 0.99 -0.66 1.98 -1 3 C-1 2.34 -1 1.68 -1 1 C-1.99 1.495 -1.99 1.495 -3 2 C-5.37402501 2.07116382 -7.75000677 2.08409085 -10.125 2.0625 C-11.40632812 2.05347656 -12.68765625 2.04445313 -14.0078125 2.03515625 C-15.48894531 2.01775391 -15.48894531 2.01775391 -17 2 C-17 1.67 -17 1.34 -17 1 C-14.91835982 0.63601378 -12.83459438 0.28416713 -10.75 -0.0625 C-9.00976562 -0.35833984 -9.00976562 -0.35833984 -7.234375 -0.66015625 C-4.37477376 -0.9606216 -2.66674071 -0.9439206 0 0 Z " fill="#D94D6F" transform="translate(249,91)"/>
<path d="M0 0 C0.99 0.495 0.99 0.495 2 1 C2.60076256 3.27399754 2.9563154 5.55130576 3.33984375 7.87109375 C3.86888679 10.36790025 3.86888679 10.36790025 7 12 C5.35 12.66 3.7 13.32 2 14 C-0.29612756 4.58997722 -0.29612756 4.58997722 0 0 Z " fill="#2C489B" transform="translate(157,145)"/>
<path d="M0 0 C0.66 0.33 1.32 0.66 2 1 C-0.33333333 3.33333333 -2.66666667 5.66666667 -5 8 C-7.625 7.625 -7.625 7.625 -10 7 C-7.01767477 3.67356033 -4.13629913 1.70847138 0 0 Z " fill="#83DC7F" transform="translate(299,7)"/>
<path d="M0 0 C-1.98 1.32 -3.96 2.64 -6 4 C-7.32 3.34 -8.64 2.68 -10 2 C-10 1.34 -10 0.68 -10 0 C-3.375 -1.125 -3.375 -1.125 0 0 Z " fill="#F0A949" transform="translate(146,225)"/>
<path d="M0 0 C1 4 1 4 1 6 C2.98 6.66 4.96 7.32 7 8 C7 8.33 7 8.66 7 9 C3.7 9 0.4 9 -3 9 C-2.01 6.03 -1.02 3.06 0 0 Z " fill="#B2366C" transform="translate(217,137)"/>
<path d="M0 0 C0 0.33 0 0.66 0 1 C-9.41002278 3.11161731 -9.41002278 3.11161731 -14 4 C-14.33 3.01 -14.66 2.02 -15 1 C-13.0641649 0.63684334 -11.12624752 0.28477269 -9.1875 -0.0625 C-8.10855469 -0.25972656 -7.02960938 -0.45695312 -5.91796875 -0.66015625 C-3 -1 -3 -1 0 0 Z " fill="#27096C" transform="translate(402,128)"/>
<path d="M0 0 C-3.96 1.98 -7.92 3.96 -12 6 C-12.33 4.68 -12.66 3.36 -13 2 C-11.39935157 1.46845258 -9.79431126 0.95011647 -8.1875 0.4375 C-7.29417969 0.14746094 -6.40085937 -0.14257812 -5.48046875 -0.44140625 C-3 -1 -3 -1 0 0 Z " fill="#FAB7AD" transform="translate(396,41)"/>
<path d="M0 0 C0 3.59760476 -0.89512296 4.2215623 -3 7 C-3.70514846 9.14733927 -3.70514846 9.14733927 -4 11 C-4.99 10.67 -5.98 10.34 -7 10 C-6.42424336 6.64749299 -5.40693737 5.06181371 -2.9375 2.75 C-2.38964844 2.22921875 -1.84179688 1.7084375 -1.27734375 1.171875 C-0.64505859 0.59179688 -0.64505859 0.59179688 0 0 Z " fill="#8DE78B" transform="translate(279,20)"/>
<path d="M0 0 C11.52164009 -0.3690205 11.52164009 -0.3690205 17 2 C17 2.66 17 3.32 17 4 C11.125 3.125 11.125 3.125 10 2 C8.31391034 1.92794489 6.62499341 1.91613932 4.9375 1.9375 C4.01839844 1.94652344 3.09929687 1.95554688 2.15234375 1.96484375 C1.44207031 1.97644531 0.73179687 1.98804688 0 2 C0 1.34 0 0.68 0 0 Z " fill="#4F217E" transform="translate(214,146)"/>
<path d="M0 0 C3.14624993 -0.26218749 4.61837017 -0.24754367 7.3125 1.5 C8.1478125 2.2425 8.1478125 2.2425 9 3 C7.35 3 5.7 3 4 3 C3.34 4.65 2.68 6.3 2 8 C0.23537317 4.91190305 0 3.76687864 0 0 Z " fill="#2F348F" transform="translate(153,128)"/>
<path d="M0 0 C1.38545753 3.84849313 0.91355473 7.06468732 0 11 C-2.05078125 13.21875 -2.05078125 13.21875 -4 15 C-3.52229477 13.06213915 -3.04278429 11.12472326 -2.5625 9.1875 C-2.29566406 8.10855469 -2.02882812 7.02960938 -1.75390625 5.91796875 C-1.23922588 3.9259157 -0.65062825 1.95188476 0 0 Z " fill="#DB4667" transform="translate(231,93)"/>
<path d="M0 0 C0.33 0.66 0.66 1.32 1 2 C1.66 2 2.32 2 3 2 C4.25 8.625 4.25 8.625 2 12 C0.86235649 7.73383684 0 4.43513689 0 0 Z " fill="#EB446B" transform="translate(247,92)"/>
<path d="M0 0 C0 0.66 0 1.32 0 2 C-1.57914015 2.53341184 -3.16354387 3.05125763 -4.75 3.5625 C-5.63171875 3.85253906 -6.5134375 4.14257812 -7.421875 4.44140625 C-10.07834316 5.01697435 -11.47031106 4.89248371 -14 4 C-11.36505677 2.24337118 -9.96001018 1.58136607 -7 0.875 C-6.319375 0.70742187 -5.63875 0.53984375 -4.9375 0.3671875 C-3 0 -3 0 0 0 Z " fill="#92CB90" transform="translate(319,0)"/>
<path d="M0 0 C0.66 0.33 1.32 0.66 2 1 C2.8125 3.8125 2.8125 3.8125 3 7 C1.5625 9.375 1.5625 9.375 0 11 C-0.66 10.34 -1.32 9.68 -2 9 C-1.67 8.443125 -1.34 7.88625 -1 7.3125 C0.1309601 4.69715478 0.15662974 2.8193354 0 0 Z M3 4 C3.99 4.495 3.99 4.495 5 5 C4.01 5.495 4.01 5.495 3 6 C3 5.34 3 4.68 3 4 Z " fill="#42A2E8" transform="translate(110,156)"/>
<path d="M0 0 C0.66 0 1.32 0 2 0 C2.13277344 0.61488281 2.26554688 1.22976562 2.40234375 1.86328125 C2.57894531 2.67152344 2.75554687 3.47976562 2.9375 4.3125 C3.19853516 5.51326172 3.19853516 5.51326172 3.46484375 6.73828125 C3.99886159 9.145401 3.99886159 9.145401 5 12 C4.01 11.67 3.02 11.34 2 11 C0.60955102 7.12137916 0 4.13537997 0 0 Z " fill="#392F91" transform="translate(248,149)"/>
<path d="M0 0 C1.45922693 0.11409593 2.91740598 0.24165544 4.375 0.375 C5.59316406 0.47941406 5.59316406 0.47941406 6.8359375 0.5859375 C9 1 9 1 11 3 C7.37 3.33 3.74 3.66 0 4 C0 2.68 0 1.36 0 0 Z " fill="#3E87DB" transform="translate(136,149)"/>
<path d="M0 0 C2.31 0.66 4.62 1.32 7 2 C7.33 3.65 7.66 5.3 8 7 C7.34 7 6.68 7 6 7 C6 6.34 6 5.68 6 5 C5.401875 4.71125 4.80375 4.4225 4.1875 4.125 C2 3 2 3 -1 1 C-0.67 0.67 -0.34 0.34 0 0 Z " fill="#313698" transform="translate(162,131)"/>
<path d="M0 0 C-0.33 0.99 -0.66 1.98 -1 3 C-1 3.99 -1 4.98 -1 6 C-4.52032428 6 -5.4385343 5.29648649 -8 3 C-8 2.34 -8 1.68 -8 1 C-2.25 0 -2.25 0 0 0 Z " fill="#D0D2B2" transform="translate(376,25)"/>
<path d="M0 0 C2.97 0.495 2.97 0.495 6 1 C5.67 4.96 5.34 8.92 5 13 C4.67 13 4.34 13 4 13 C4 9.7 4 6.4 4 3 C2.68 2.67 1.36 2.34 0 2 C0 1.34 0 0.68 0 0 Z " fill="#DADF65" transform="translate(144,208)"/>
<path d="M0 0 C0.66 0 1.32 0 2 0 C2 0.66 2 1.32 2 2 C1.01 2.495 1.01 2.495 0 3 C2.64 3.33 5.28 3.66 8 4 C8 4.33 8 4.66 8 5 C4.37 5.33 0.74 5.66 -3 6 C-2 2 -2 2 0 0 Z " fill="#5AACDD" transform="translate(71,180)"/>
<path d="M0 0 C1.32 0.33 2.64 0.66 4 1 C3.34 1 2.68 1 2 1 C1.7525 1.61875 1.505 2.2375 1.25 2.875 C-0.20628639 5.35068687 -1.37812506 5.95125002 -4 7 C-4 7.66 -4 8.32 -4 9 C-4.66 8.67 -5.32 8.34 -6 8 C-5.38125 7.4225 -4.7625 6.845 -4.125 6.25 C-2.18652947 4.19750179 -1.09985751 2.56633418 0 0 Z " fill="#4BACE6" transform="translate(53,174)"/>
<path d="M0 0 C-0.66 1.32 -1.32 2.64 -2 4 C-2.33 3.01 -2.66 2.02 -3 1 C-9.435 1.495 -9.435 1.495 -16 2 C-16 1.67 -16 1.34 -16 1 C-10.63904667 -0.12862175 -5.44693314 -0.09688221 0 0 Z " fill="#4BAFE1" transform="translate(45,176)"/>
<path d="M0 0 C0.66 0 1.32 0 2 0 C2 1.32 2 2.64 2 4 C3.2065625 4.185625 3.2065625 4.185625 4.4375 4.375 C5.7059375 4.684375 5.7059375 4.684375 7 5 C7.33 5.66 7.66 6.32 8 7 C5.23723823 6.47731534 2.6739124 5.89130413 0 5 C0 3.35 0 1.7 0 0 Z " fill="#58A0CD" transform="translate(135,199)"/>
<path d="M0 0 C0.66 0.66 1.32 1.32 2 2 C1.01 2.33 0.02 2.66 -1 3 C-1.33 3.99 -1.66 4.98 -2 6 C-2.66 6 -3.32 6 -4 6 C-4.66 7.32 -5.32 8.64 -6 10 C-6.33 9.34 -6.66 8.68 -7 8 C-3.375 2.25 -3.375 2.25 0 0 Z " fill="#333333" transform="translate(283,188)"/>
<path d="M0 0 C0.33 0.66 0.66 1.32 1 2 C0.05016642 3.50539661 -0.91011891 5.00420347 -1.875 6.5 C-2.40867187 7.3353125 -2.94234375 8.170625 -3.4921875 9.03125 C-3.98976563 9.6809375 -4.48734375 10.330625 -5 11 C-5.66 11 -6.32 11 -7 11 C-5.5140084 6.40693504 -3.14985318 3.56430755 0 0 Z " fill="#341A88" transform="translate(395,111)"/>
<path d="M0 0 C0.99 0.495 0.99 0.495 2 1 C2 1.66 2 2.32 2 3 C3.98 3 5.96 3 8 3 C8 3.66 8 4.32 8 5 C5.36 5 2.72 5 0 5 C0 3.35 0 1.7 0 0 Z " fill="#3A3A3A" transform="translate(216,210)"/>
<path d="M0 0 C-1 3 -1 3 -3.0625 4.1875 C-3.701875 4.455625 -4.34125 4.72375 -5 5 C-5.66 3.68 -6.32 2.36 -7 1 C-3.375 -1.125 -3.375 -1.125 0 0 Z " fill="#383838" transform="translate(294,200)"/>
<path d="M0 0 C0.75 1.6875 0.75 1.6875 1 4 C-1.13381449 7.2769294 -2.25018012 8.75006004 -6 10 C-6.33 9.34 -6.66 8.68 -7 8 C-6.01 8 -5.02 8 -4 8 C-3.87625 7.360625 -3.7525 6.72125 -3.625 6.0625 C-3.41875 5.381875 -3.2125 4.70125 -3 4 C-2.34 3.67 -1.68 3.34 -1 3 C-0.67 2.01 -0.34 1.02 0 0 Z " fill="#242A83" transform="translate(203,157)"/>
<path d="M0 0 C0.33 0.66 0.66 1.32 1 2 C2.65 2 4.3 2 6 2 C6 2.99 6 3.98 6 5 C5.01 5.33 4.02 5.66 3 6 C3 5.01 3 4.02 3 3 C2.34 3 1.68 3 1 3 C0.67 3.99 0.34 4.98 0 6 C-0.66 5.67 -1.32 5.34 -2 5 C-1.34 3.35 -0.68 1.7 0 0 Z " fill="#2A39A3" transform="translate(172,135)"/>
<path d="M0 0 C3.14737182 0.69941596 6.02588876 1.76078698 9 3 C6.13822943 4.43088528 4.06624227 3.59991697 1 3 C0.67 3.99 0.34 4.98 0 6 C0 4.02 0 2.04 0 0 Z " fill="#C2D576" transform="translate(135,204)"/>
<path d="M0 0 C-0.66 1.32 -1.32 2.64 -2 4 C-2.33 3.34 -2.66 2.68 -3 2 C-4.89533342 1.53476937 -4.89533342 1.53476937 -7.0625 1.375 C-8.361875 1.25125 -9.66125 1.1275 -11 1 C-11 0.67 -11 0.34 -11 0 C-9.54263913 -0.19491452 -8.08405407 -0.38069358 -6.625 -0.5625 C-5.81289063 -0.66691406 -5.00078125 -0.77132812 -4.1640625 -0.87890625 C-2 -1 -2 -1 0 0 Z " fill="#95ABD2" transform="translate(53,175)"/>
<path d="M0 0 C2.46800047 1.15173355 4.04783565 2.04783565 6 4 C3.69 4.33 1.38 4.66 -1 5 C-1.33 4.34 -1.66 3.68 -2 3 C-1.34 3 -0.68 3 0 3 C0 2.01 0 1.02 0 0 Z " fill="#191F7F" transform="translate(190,164)"/>
<path d="M0 0 C1.43655854 -0.08131463 2.8744483 -0.13933559 4.3125 -0.1875 C5.51326172 -0.23970703 5.51326172 -0.23970703 6.73828125 -0.29296875 C9.47851584 0.06198392 10.29171079 0.89366282 12 3 C7.53160785 3.21278058 4.17737474 2.59138085 0 1 C0 0.67 0 0.34 0 0 Z " fill="#A1306E" transform="translate(225,146)"/>
<path d="M0 0 C8.57142857 -0.28571429 8.57142857 -0.28571429 12 2 C12 2.66 12 3.32 12 4 C6.06 2.515 6.06 2.515 0 1 C0 0.67 0 0.34 0 0 Z " fill="#84BD84" transform="translate(344,15)"/>
<path d="M0 0 C0.33 0.66 0.66 1.32 1 2 C2.32 2 3.64 2 5 2 C5 2.66 5 3.32 5 4 C2.29120665 5.35439668 -0.00933268 5.06501451 -3 5 C-2.01 3.35 -1.02 1.7 0 0 Z " fill="#9DB0DF" transform="translate(37,185)"/>
<path d="M0 0 C2.97 0 5.94 0 9 0 C7.68 1.65 6.36 3.3 5 5 C3.35 3.35 1.7 1.7 0 0 Z " fill="#141D83" transform="translate(170,158)"/>
<path d="M0 0 C0.33 0 0.66 0 1 0 C1 1.98 1 3.96 1 6 C-1.97 5.67 -4.94 5.34 -8 5 C-8 4.67 -8 4.34 -8 4 C-5.69 4 -3.38 4 -1 4 C-0.67 2.68 -0.34 1.36 0 0 Z " fill="#C63466" transform="translate(184,131)"/>
<path d="M0 0 C0.66 0.33 1.32 0.66 2 1 C1.01 3.97 0.02 6.94 -1 10 C-1.33 10 -1.66 10 -2 10 C-2 7.03 -2 4.06 -2 1 C-1.34 0.67 -0.68 0.34 0 0 Z " fill="#1E1D1E" transform="translate(309,161)"/>
<path d="M0 0 C2.31 0 4.62 0 7 0 C6.67 0.66 6.34 1.32 6 2 C5.34 2 4.68 2 4 2 C4 2.66 4 3.32 4 4 C2.68 3.34 1.36 2.68 0 2 C0 1.34 0 0.68 0 0 Z " fill="#50A8E6" transform="translate(84,144)"/>
<path d="M0 0 C0.33 1.32 0.66 2.64 1 4 C-2.375 4.625 -2.375 4.625 -6 5 C-6.66 4.34 -7.32 3.68 -8 3 C-7.34 3 -6.68 3 -6 3 C-6 2.34 -6 1.68 -6 1 C-4.02 1.66 -2.04 2.32 0 3 C0 2.01 0 1.02 0 0 Z " fill="#F04669" transform="translate(319,128)"/>
<path d="M0 0 C0.99 1.32 1.98 2.64 3 4 C1.02 4.99 1.02 4.99 -1 6 C-1.66 5.34 -2.32 4.68 -3 4 C-2.67 3.01 -2.34 2.02 -2 1 C-1.34 0.67 -0.68 0.34 0 0 Z " fill="#E0284E" transform="translate(228,107)"/>
<path d="M0 0 C6.875 3.75 6.875 3.75 8 6 C4.22454612 4.90931332 1.52956528 4.0916909 -1 1 C-0.67 0.67 -0.34 0.34 0 0 Z " fill="#84B883" transform="translate(359,19)"/>
<path d="M0 0 C0.33 0.66 0.66 1.32 1 2 C-3.455 2.495 -3.455 2.495 -8 3 C-8 2.34 -8 1.68 -8 1 C-5.29120665 -0.35439668 -2.99066732 -0.06501451 0 0 Z " fill="#3B3B3B" transform="translate(266,218)"/>
<path d="M0 0 C2.97 0.495 2.97 0.495 6 1 C6 1.99 6 2.98 6 4 C4.68 4 3.36 4 2 4 C2 3.34 2 2.68 2 2 C1.34 2 0.68 2 0 2 C0 1.34 0 0.68 0 0 Z " fill="#3F3F3F" transform="translate(237,181)"/>
<path d="M0 0 C0.99 0 1.98 0 3 0 C2.34 3.3 1.68 6.6 1 10 C0.67 10 0.34 10 0 10 C0 6.7 0 3.4 0 0 Z " fill="#E4365B" transform="translate(272,126)"/>
<path d="M0 0 C1.80330533 3.60661066 2.46599103 6.08393425 3 10 C2.01 9.67 1.02 9.34 0 9 C0 6.03 0 3.06 0 0 Z " fill="#DC4569" transform="translate(253,108)"/>
<path d="M0 0 C2.31 0 4.62 0 7 0 C6.67 0.99 6.34 1.98 6 3 C5.01 3.33 4.02 3.66 3 4 C3 3.34 3 2.68 3 2 C2.01 2 1.02 2 0 2 C0 1.34 0 0.68 0 0 Z " fill="#CD3965" transform="translate(123,105)"/>
<path d="M0 0 C0.96661363 3.12180401 0.98988909 5.52083795 0.5625 8.75 C0.40974609 9.94882813 0.40974609 9.94882813 0.25390625 11.171875 C0.12822266 12.07679687 0.12822266 12.07679687 0 13 C-0.33 13 -0.66 13 -1 13 C-1.22151549 11.20991533 -1.42682213 9.41781838 -1.625 7.625 C-1.74101562 6.62726563 -1.85703125 5.62953125 -1.9765625 4.6015625 C-1.98429687 3.74304688 -1.99203125 2.88453125 -2 2 C-1.34 1.34 -0.68 0.68 0 0 Z " fill="#5C2978" transform="translate(405,75)"/>
<path d="M0 0 C0.66 0.99 1.32 1.98 2 3 C0.35 4.65 -1.3 6.3 -3 8 C-3.66 7.67 -4.32 7.34 -5 7 C-3.35 4.69 -1.7 2.38 0 0 Z " fill="#D16470" transform="translate(269,29)"/>
<path d="M0 0 C0.86625 0.3403125 0.86625 0.3403125 1.75 0.6875 C0 2.25 0 2.25 -2.25 3.6875 C-4.5 3.375 -4.5 3.375 -6.25 2.6875 C-2.80384615 -0.38942308 -2.80384615 -0.38942308 0 0 Z " fill="#DBD7B2" transform="translate(382.25,21.3125)"/>
<path d="M0 0 C-0.375 2.9375 -0.375 2.9375 -1 6 C-1.99 6.495 -1.99 6.495 -3 7 C-3.144375 6.38125 -3.28875 5.7625 -3.4375 5.125 C-3.93152225 2.96741678 -3.93152225 2.96741678 -5 1 C-2 0 -2 0 0 0 Z " fill="#89DE85" transform="translate(287,15)"/>
<path d="M0 0 C0 3 0 3 -1 5 C-2.98 4.34 -4.96 3.68 -7 3 C-4.66785852 1.79371992 -2.50357861 0.8345262 0 0 Z " fill="#74C370" transform="translate(343,9)"/>
<path d="" fill="#FFFFFF" transform="translate(0,0)"/>
<path d="" fill="#FFFFFF" transform="translate(0,0)"/>
<path d="" fill="#FFFFFF" transform="translate(0,0)"/>
<path d="" fill="#FFFFFF" transform="translate(0,0)"/>
<path d="" fill="#FFFFFF" transform="translate(0,0)"/>
<path d="" fill="#FFFFFF" transform="translate(0,0)"/>
<path d="" fill="#FFFFFF" transform="translate(0,0)"/>
<path d="" fill="#FFFFFF" transform="translate(0,0)"/>
<path d="" fill="#FFFFFF" transform="translate(0,0)"/>
<path d="" fill="#FFFFFF" transform="translate(0,0)"/>
<path d="" fill="#FFFFFF" transform="translate(0,0)"/>
<path d="" fill="#FFFFFF" transform="translate(0,0)"/>
<path d="" fill="#FFFFFF" transform="translate(0,0)"/>
<path d="" fill="#FFFFFF" transform="translate(0,0)"/>
<path d="" fill="#FFFFFF" transform="translate(0,0)"/>
<path d="" fill="#FFFFFF" transform="translate(0,0)"/>
<path d="" fill="#FFFFFF" transform="translate(0,0)"/>
<path d="" fill="#FFFFFF" transform="translate(0,0)"/>
<path d="" fill="#FFFFFF" transform="translate(0,0)"/>
<path d="" fill="#FFFFFF" transform="translate(0,0)"/>
<path d="" fill="#FFFFFF" transform="translate(0,0)"/>
<path d="" fill="#FFFFFF" transform="translate(0,0)"/>
<path d="" fill="#FFFFFF" transform="translate(0,0)"/>
<path d="" fill="#FFFFFF" transform="translate(0,0)"/>
<path d="" fill="#FFFFFF" transform="translate(0,0)"/>
<path d="" fill="#FFFFFF" transform="translate(0,0)"/>
<path d="" fill="#FFFFFF" transform="translate(0,0)"/>
<path d="" fill="#FFFFFF" transform="translate(0,0)"/>
<path d="" fill="#FFFFFF" transform="translate(0,0)"/>
<path d="" fill="#FFFFFF" transform="translate(0,0)"/>
<path d="" fill="#FFFFFF" transform="translate(0,0)"/>
<path d="" fill="#FFFFFF" transform="translate(0,0)"/>
<path d="" fill="#FFFFFF" transform="translate(0,0)"/>
<path d="" fill="#FFFFFF" transform="translate(0,0)"/>
<path d="" fill="#FFFFFF" transform="translate(0,0)"/>
<path d="" fill="#FFFFFF" transform="translate(0,0)"/>
<path d="" fill="#FFFFFF" transform="translate(0,0)"/>
<path d="" fill="#FFFFFF" transform="translate(0,0)"/>
<path d="" fill="#FFFFFF" transform="translate(0,0)"/>
<path d="" fill="#FFFFFF" transform="translate(0,0)"/>
<path d="" fill="#FFFFFF" transform="translate(0,0)"/>
<path d="" fill="#FFFFFF" transform="translate(0,0)"/>
<path d="" fill="#FFFFFF" transform="translate(0,0)"/>
<path d="" fill="#FFFFFF" transform="translate(0,0)"/>
<path d="" fill="#FFFFFF" transform="translate(0,0)"/>
<path d="" fill="#FFFFFF" transform="translate(0,0)"/>
<path d="" fill="#FFFFFF" transform="translate(0,0)"/>
<path d="" fill="#FFFFFF" transform="translate(0,0)"/>
<path d="" fill="#FFFFFF" transform="translate(0,0)"/>
<path d="" fill="#FFFFFF" transform="translate(0,0)"/>
<path d="" fill="#FFFFFF" transform="translate(0,0)"/>
<path d="" fill="#FFFFFF" transform="translate(0,0)"/>
<path d="" fill="#FFFFFF" transform="translate(0,0)"/>
<path d="" fill="#FFFFFF" transform="translate(0,0)"/>
<path d="" fill="#FFFFFF" transform="translate(0,0)"/>
<path d="" fill="#FFFFFF" transform="translate(0,0)"/>
<path d="" fill="#FFFFFF" transform="translate(0,0)"/>
<path d="" fill="#FFFFFF" transform="translate(0,0)"/>
</svg>
